<svg width="16" height="17" viewBox="0 0 16 17" fill="none" xmlns="http://www.w3.org/2000/svg">
<path d="M10.6667 5.98444V11.0511C10.6667 11.24 10.7307 11.3984 10.8587 11.5264C10.9867 11.6544 11.1449 11.7182 11.3333 11.7178C11.5218 11.7173 11.68 11.6533 11.808 11.5258C11.936 11.3982 12 11.24 12 11.0511V4.38444C12 4.19555 11.936 4.03733 11.808 3.90977C11.68 3.78222 11.5218 3.71822 11.3333 3.71777H4.66667C4.47778 3.71777 4.31933 3.78177 4.19133 3.90977C4.06333 4.03777 3.99956 4.196 4 4.38444C4.00044 4.57288 4.06444 4.73133 4.192 4.85977C4.31956 4.98822 4.47778 5.052 4.66667 5.05111H9.73333L3.8 10.9844C3.67778 11.1067 3.61667 11.2622 3.61667 11.4511C3.61667 11.64 3.67778 11.7956 3.8 11.9178C3.92222 12.04 4.07778 12.1011 4.26667 12.1011C4.45555 12.1011 4.61111 12.04 4.73333 11.9178L10.6667 5.98444Z" fill="#31B67D"/>
</svg>
