<svg width="41" height="40" viewBox="0 0 41 40" fill="none" xmlns="http://www.w3.org/2000/svg">
<path d="M20.6667 35.1667L18.1667 37.3333C7.16667 27.5 1.5 22.3333 1.5 16C1.5 14 2.16667 12.1667 3.16667 10.6667V11.6667C3.16667 19.5 9.66667 25.3333 20.6667 35.1667ZM23.3333 28.3333C31.1667 21.1667 36.5 16.5 36.6667 11.6667C36.6667 8.33333 34.1667 5.83333 30.8333 5.83333C28.1667 5.83333 25.6667 7.5 24.8333 9.83333H21.6667C20.6667 7.5 18.1667 5.83333 15.6667 5.83333C12.3333 5.83333 9.83333 8.33333 9.83333 11.6667C9.83333 16.5 15 21.1667 23 28.3333L23.1667 28.5M30.6667 2.5C35.8333 2.5 39.8333 6.5 39.8333 11.6667C39.8333 17.8333 34.1667 23 23.1667 33C12.1667 23.1667 6.5 18 6.5 11.6667C6.5 6.5 10.5 2.5 15.6667 2.5C18.5 2.5 21.3333 3.83333 23.1667 6C25 3.83333 27.8333 2.5 30.6667 2.5Z" fill="white"/>
</svg>
