<svg width="40" height="41" viewBox="0 0 40 41" fill="none" xmlns="http://www.w3.org/2000/svg">
<path d="M19.9999 35.5512L17.4999 37.7179C6.49992 27.8845 0.833252 22.7179 0.833252 16.3845C0.833252 14.3845 1.49992 12.5512 2.49992 11.0512V12.0512C2.49992 19.8845 8.99992 25.7179 19.9999 35.5512ZM22.6666 28.7179C30.4999 21.5512 35.8333 16.8845 35.9999 12.0512C35.9999 8.71785 33.4999 6.21785 30.1666 6.21785C27.4999 6.21785 24.9999 7.88452 24.1666 10.2179H20.9999C19.9999 7.88452 17.4999 6.21785 14.9999 6.21785C11.6666 6.21785 9.16658 8.71785 9.16658 12.0512C9.16658 16.8845 14.3333 21.5512 22.3333 28.7179L22.4999 28.8845M29.9999 2.88452C35.1666 2.88452 39.1666 6.88452 39.1666 12.0512C39.1666 18.2179 33.4999 23.3845 22.4999 33.3845C11.4999 23.5512 5.83325 18.3845 5.83325 12.0512C5.83325 6.88452 9.83325 2.88452 14.9999 2.88452C17.8333 2.88452 20.6666 4.21785 22.4999 6.38452C24.3333 4.21785 27.1666 2.88452 29.9999 2.88452Z" fill="#31B67D"/>
</svg>
