<svg width="41" height="41" viewBox="0 0 41 41" fill="none" xmlns="http://www.w3.org/2000/svg">
<path d="M27.0002 10.8512C27.0001 11.8541 26.6035 12.8162 25.8969 13.5279C24.2702 15.1679 22.6919 16.8779 21.0036 18.4579C20.8151 18.6296 20.5679 18.7224 20.3129 18.7171C20.058 18.7119 19.8148 18.6089 19.6336 18.4295L14.7702 13.5295C14.0629 12.8176 13.6659 11.8548 13.6659 10.8512C13.6659 9.84763 14.0629 8.88479 14.7702 8.17287C15.123 7.81751 15.5426 7.53547 16.0048 7.343C16.4671 7.15053 16.9629 7.05144 17.4636 7.05144C17.9643 7.05144 18.4601 7.15053 18.9223 7.343C19.3846 7.53547 19.8042 7.81751 20.1569 8.17287L20.3336 8.35121L20.5102 8.17287C21.0397 7.63765 21.7165 7.27209 22.4545 7.12275C23.1924 6.9734 23.958 7.04702 24.654 7.33422C25.3499 7.62143 25.9447 8.10924 26.3625 8.73555C26.7803 9.36185 27.0023 10.0983 27.0002 10.8512Z" stroke="#31B67D" stroke-width="2.5" stroke-linejoin="round"/>
<path d="M30.3335 33.7181L36.7068 27.3448C36.8944 27.1574 36.9999 26.9032 37.0002 26.6381V17.8848C37.0002 17.2217 36.7368 16.5858 36.2679 16.117C35.7991 15.6482 35.1632 15.3848 34.5002 15.3848C33.8371 15.3848 33.2012 15.6482 32.7324 16.117C32.2636 16.5858 32.0002 17.2217 32.0002 17.8848V25.3848" stroke="#31B67D" stroke-width="2.5" stroke-linecap="round" stroke-linejoin="round"/>
<path d="M30.3335 27.0514L31.7635 25.6214C31.839 25.5466 31.8987 25.4576 31.9394 25.3594C31.98 25.2613 32.0007 25.156 32.0002 25.0498C31.999 24.9001 31.9568 24.7536 31.878 24.6264C31.7992 24.4991 31.687 24.3959 31.5535 24.3281L30.8152 23.9598C30.1897 23.647 29.4816 23.5389 28.7913 23.6508C28.101 23.7626 27.4633 24.0888 26.9685 24.5831L25.4769 26.0748C24.8517 26.6997 24.5004 27.5474 24.5002 28.4314V33.7181M10.3335 33.7181L3.9602 27.3448C3.77261 27.1574 3.6671 26.9032 3.66687 26.6381V17.8848C3.66687 17.2217 3.93026 16.5858 4.3991 16.117C4.86794 15.6482 5.50383 15.3848 6.16687 15.3848C6.82991 15.3848 7.4658 15.6482 7.93464 16.117C8.40348 16.5858 8.66687 17.2217 8.66687 17.8848V25.3848" stroke="#31B67D" stroke-width="2.5" stroke-linecap="round" stroke-linejoin="round"/>
<path d="M10.3335 27.051L8.90354 25.621C8.75421 25.4679 8.66947 25.2632 8.66687 25.0493C8.66687 24.7443 8.8402 24.466 9.11354 24.3277L9.85187 23.9593C10.4774 23.6466 11.1854 23.5385 11.8758 23.6503C12.5661 23.7622 13.2038 24.0884 13.6985 24.5827L15.1902 26.0743C15.8154 26.6993 16.1667 27.547 16.1669 28.431V33.7177" stroke="#31B67D" stroke-width="2.5" stroke-linecap="round" stroke-linejoin="round"/>
</svg>
