<svg width="24" height="25" viewBox="0 0 24 25" fill="none" xmlns="http://www.w3.org/2000/svg">
<path d="M4 21.3848H13.62C14.197 21.3847 14.7672 21.2599 15.2914 21.0187C15.8157 20.7776 16.2815 20.4259 16.657 19.9878L21.759 14.0358C21.8658 13.9114 21.9404 13.7626 21.9762 13.6025C22.012 13.4425 22.0079 13.2761 21.9642 13.118C21.9206 12.96 21.8387 12.8151 21.7258 12.6961C21.6129 12.5771 21.4726 12.4877 21.317 12.4358L19.349 11.7798C18.8734 11.6249 18.3669 11.5898 17.8745 11.6775C17.382 11.7653 16.9188 11.9732 16.526 12.2828L13.341 14.8298L12.724 13.5948C12.3935 12.9291 11.8831 12.3692 11.2507 11.9786C10.6184 11.588 9.88926 11.3823 9.146 11.3848H4C2.897 11.3848 2 12.2818 2 13.3848V19.3848C2 20.4878 2.897 21.3848 4 21.3848ZM4 13.3848H9.146C9.909 13.3848 10.594 13.8078 10.935 14.4898L11.382 15.3848H7V17.3848H13.014C13.1678 17.3826 13.3191 17.345 13.456 17.2748L13.459 17.2738L13.463 17.2718H13.466L13.468 17.2708H13.472L13.473 17.2698C13.482 17.2728 13.476 17.2688 13.476 17.2688C13.486 17.2688 13.478 17.2678 13.478 17.2678H13.479L13.481 17.2668L13.484 17.2658L13.486 17.2648L13.488 17.2638L13.491 17.2628L13.493 17.2618C13.496 17.2618 13.494 17.2608 13.495 17.2608L13.498 17.2588L13.5 17.2578L13.502 17.2568L13.505 17.2558L13.507 17.2548H13.508L13.51 17.2538L13.513 17.2528L13.515 17.2518C13.524 17.2508 13.518 17.2508 13.518 17.2508L13.52 17.2498C13.5584 17.2263 13.5951 17.2002 13.63 17.1718L17.776 13.8548C18.038 13.6468 18.399 13.5818 18.716 13.6878L19.273 13.8738L15.14 18.6968C14.9498 18.9126 14.716 19.0855 14.4539 19.2042C14.1919 19.3228 13.9076 19.3843 13.62 19.3848H4V13.3848ZM16 2.38477H15.983C15.82 2.38677 14.977 2.42377 14 3.08977C13.049 2.44177 12.226 2.38977 12.032 2.38577L12.002 2.38477H11.998C11.197 2.38477 10.443 2.69777 9.879 3.26277C9.313 3.82977 9 4.58277 9 5.38477C9 6.18677 9.313 6.93977 9.861 7.48877L13.275 11.0748C13.3689 11.1723 13.4816 11.2498 13.6062 11.3028C13.7308 11.3557 13.8648 11.3829 14.0002 11.3828C14.1356 11.3827 14.2696 11.3553 14.3941 11.3022C14.5187 11.2491 14.6312 11.1714 14.725 11.0738L18.121 7.50577C18.688 6.93977 19 6.18677 19 5.38477C19 4.58277 18.687 3.82977 18.122 3.26377C17.8443 2.98441 17.5139 2.76288 17.15 2.612C16.7861 2.46113 16.3959 2.38389 16.002 2.38477H16ZM17 5.38477C17 5.65177 16.896 5.90277 16.689 6.10977L14 8.93477L11.293 6.09177C11.104 5.90277 11 5.65177 11 5.38477C11 5.11777 11.104 4.86677 11.294 4.67677C11.475 4.4931 11.7211 4.38819 11.979 4.38477C12.004 4.38577 12.481 4.41677 13.046 4.86977C13.1267 4.93511 13.209 5.00911 13.293 5.09177L14 5.79877L14.707 5.09177C14.791 5.00911 14.8733 4.93511 14.954 4.86977C15.483 4.44477 15.93 4.39177 16.006 4.38577C16.269 4.38715 16.5208 4.49205 16.707 4.67777C16.896 4.86677 17 5.11777 17 5.38477Z" fill="#31B67D"/>
</svg>
