<svg width="16" height="16" viewBox="0 0 16 16" fill="none" xmlns="http://www.w3.org/2000/svg">
<path d="M2.66671 14H9.08004C9.46472 14 9.84485 13.9167 10.1943 13.756C10.5438 13.5952 10.8544 13.3608 11.1047 13.0687L14.506 9.10067C14.5773 9.01772 14.627 8.91853 14.6509 8.81184C14.6747 8.70514 14.672 8.59422 14.6429 8.48884C14.6137 8.38346 14.5592 8.28685 14.4839 8.20753C14.4087 8.12822 14.3151 8.06862 14.2114 8.034L12.8994 7.59667C12.5823 7.49342 12.2446 7.47 11.9164 7.5285C11.5881 7.58699 11.2793 7.72559 11.0174 7.932L8.89404 9.63L8.48271 8.80667C8.26234 8.36285 7.92211 7.98961 7.50053 7.72922C7.07895 7.46883 6.59288 7.33169 6.09737 7.33333H2.66671C1.93137 7.33333 1.33337 7.93133 1.33337 8.66667V12.6667C1.33337 13.402 1.93137 14 2.66671 14ZM2.66671 8.66667H6.09737C6.60604 8.66667 7.06271 8.94867 7.29004 9.40333L7.58804 10H4.66671V11.3333H8.67604C8.7786 11.3319 8.87943 11.3068 8.97071 11.26L8.97271 11.2593L8.97537 11.258H8.97737L8.97871 11.2573H8.98137L8.98204 11.2567C8.98804 11.2587 8.98404 11.256 8.98404 11.256C8.99071 11.256 8.98537 11.2553 8.98537 11.2553H8.98604L8.98737 11.2547L8.98937 11.254L8.99071 11.2533L8.99204 11.2527L8.99404 11.252L8.99537 11.2513C8.99737 11.2513 8.99604 11.2507 8.99671 11.2507L8.99871 11.2493L9.00004 11.2487L9.00137 11.248L9.00337 11.2473L9.00471 11.2467H9.00537L9.00671 11.246L9.00871 11.2453L9.01004 11.2447C9.01604 11.244 9.01204 11.244 9.01204 11.244L9.01337 11.2433C9.03896 11.2277 9.06346 11.2103 9.08671 11.1913L11.8507 8.98C12.0254 8.84133 12.266 8.798 12.4774 8.86867L12.8487 8.99267L10.0934 12.208C9.96661 12.3519 9.81071 12.4672 9.63601 12.5463C9.46131 12.6253 9.2718 12.6664 9.08004 12.6667H2.66671V8.66667ZM10.6667 1.33333H10.6554C10.5467 1.33467 9.98471 1.35933 9.33337 1.80333C8.69937 1.37133 8.15071 1.33667 8.02137 1.334L8.00137 1.33333H7.99871C7.46471 1.33333 6.96204 1.542 6.58604 1.91867C6.20871 2.29667 6.00004 2.79867 6.00004 3.33333C6.00004 3.868 6.20871 4.37 6.57404 4.736L8.85004 7.12667C8.91266 7.19167 8.98776 7.24337 9.07083 7.27866C9.15391 7.31395 9.24326 7.33211 9.33352 7.33205C9.42378 7.33198 9.5131 7.3137 9.59612 7.2783C9.67915 7.24289 9.75418 7.19109 9.81671 7.126L12.0807 4.74733C12.4587 4.37 12.6667 3.868 12.6667 3.33333C12.6667 2.79867 12.458 2.29667 12.0814 1.91933C11.8962 1.73309 11.676 1.5854 11.4334 1.48482C11.1908 1.38423 10.9307 1.33275 10.668 1.33333H10.6667ZM11.3334 3.33333C11.3334 3.51133 11.264 3.67867 11.126 3.81667L9.33337 5.7L7.52871 3.80467C7.40271 3.67867 7.33337 3.51133 7.33337 3.33333C7.33337 3.15533 7.40271 2.988 7.52937 2.86133C7.65005 2.73889 7.81414 2.66894 7.98604 2.66667C8.00271 2.66733 8.32071 2.688 8.69737 2.99C8.75115 3.03356 8.80604 3.08289 8.86204 3.138L9.33337 3.60933L9.80471 3.138C9.86071 3.08289 9.9156 3.03356 9.96937 2.99C10.322 2.70667 10.62 2.67133 10.6707 2.66733C10.846 2.66825 11.0139 2.73819 11.138 2.862C11.264 2.988 11.3334 3.15533 11.3334 3.33333Z" fill="white"/>
</svg>
