<svg width="20" height="20" viewBox="0 0 20 20" fill="none" xmlns="http://www.w3.org/2000/svg">
<path d="M9.99984 1.66663C14.6023 1.66663 18.3332 5.39746 18.3332 9.99996C18.3332 14.6025 14.6023 18.3333 9.99984 18.3333C5.39734 18.3333 1.6665 14.6025 1.6665 9.99996C1.6665 5.39746 5.39734 1.66663 9.99984 1.66663ZM9.99984 3.33329C8.23173 3.33329 6.53603 4.03567 5.28579 5.28591C4.03555 6.53616 3.33317 8.23185 3.33317 9.99996C3.33317 11.7681 4.03555 13.4638 5.28579 14.714C6.53603 15.9642 8.23173 16.6666 9.99984 16.6666C11.7679 16.6666 13.4636 15.9642 14.7139 14.714C15.9641 13.4638 16.6665 11.7681 16.6665 9.99996C16.6665 8.23185 15.9641 6.53616 14.7139 5.28591C13.4636 4.03567 11.7679 3.33329 9.99984 3.33329ZM9.99984 4.99996C10.2039 4.99999 10.401 5.07492 10.5535 5.21056C10.706 5.34619 10.8035 5.53308 10.8273 5.73579L10.8332 5.83329V9.65496L13.089 11.9108C13.2385 12.0608 13.3252 12.262 13.3317 12.4736C13.3382 12.6852 13.2638 12.8914 13.1238 13.0502C12.9838 13.209 12.7885 13.3085 12.5778 13.3286C12.367 13.3487 12.1565 13.2878 11.989 13.1583L11.9107 13.0891L9.41067 10.5891C9.28115 10.4595 9.19797 10.2908 9.174 10.1091L9.1665 9.99996V5.83329C9.1665 5.61228 9.2543 5.40032 9.41058 5.24404C9.56686 5.08776 9.77882 4.99996 9.99984 4.99996Z" fill="white"/>
</svg>
