<svg width="41" height="41" viewBox="0 0 41 41" fill="none" xmlns="http://www.w3.org/2000/svg">
<path d="M20.3334 8.7181C19.6703 8.7181 19.0344 8.98149 18.5656 9.45033C18.0968 9.91917 17.8334 10.5551 17.8334 11.2181C17.8334 11.8811 18.0968 12.517 18.5656 12.9859C19.0344 13.4547 19.6703 13.7181 20.3334 13.7181C20.9964 13.7181 21.6323 13.4547 22.1011 12.9859C22.57 12.517 22.8334 11.8811 22.8334 11.2181C22.8334 10.5551 22.57 9.91917 22.1011 9.45033C21.6323 8.98149 20.9964 8.7181 20.3334 8.7181ZM14.5 11.2181C14.5 10.4521 14.6509 9.69351 14.9441 8.98578C15.2372 8.27805 15.6669 7.63498 16.2086 7.09331C16.7503 6.55163 17.3933 6.12195 18.101 5.8288C18.8088 5.53565 19.5673 5.38477 20.3334 5.38477C21.0994 5.38477 21.858 5.53565 22.5657 5.8288C23.2734 6.12195 23.9165 6.55163 24.4582 7.09331C24.9998 7.63498 25.4295 8.27805 25.7227 8.98578C26.0158 9.69351 26.1667 10.4521 26.1667 11.2181C26.1667 12.7652 25.5521 14.2489 24.4582 15.3429C23.3642 16.4369 21.8805 17.0514 20.3334 17.0514C18.7863 17.0514 17.3025 16.4369 16.2086 15.3429C15.1146 14.2489 14.5 12.7652 14.5 11.2181ZM8.6667 13.7181C8.22468 13.7181 7.80075 13.8937 7.48819 14.2063C7.17563 14.5188 7.00004 14.9427 7.00004 15.3848C7.00004 15.8268 7.17563 16.2507 7.48819 16.5633C7.80075 16.8758 8.22468 17.0514 8.6667 17.0514C9.10873 17.0514 9.53265 16.8758 9.84521 16.5633C10.1578 16.2507 10.3334 15.8268 10.3334 15.3848C10.3334 14.9427 10.1578 14.5188 9.84521 14.2063C9.53265 13.8937 9.10873 13.7181 8.6667 13.7181ZM3.6667 15.3848C3.6667 14.0587 4.19349 12.7869 5.13117 11.8492C6.06885 10.9116 7.34062 10.3848 8.6667 10.3848C9.99279 10.3848 11.2646 10.9116 12.2022 11.8492C13.1399 12.7869 13.6667 14.0587 13.6667 15.3848C13.6667 16.7108 13.1399 17.9826 12.2022 18.9203C11.2646 19.858 9.99279 20.3848 8.6667 20.3848C7.34062 20.3848 6.06885 19.858 5.13117 18.9203C4.19349 17.9826 3.6667 16.7108 3.6667 15.3848ZM30.3334 15.3848C30.3334 14.9427 30.509 14.5188 30.8215 14.2063C31.1341 13.8937 31.558 13.7181 32 13.7181C32.4421 13.7181 32.866 13.8937 33.1785 14.2063C33.4911 14.5188 33.6667 14.9427 33.6667 15.3848C33.6667 15.8268 33.4911 16.2507 33.1785 16.5633C32.866 16.8758 32.4421 17.0514 32 17.0514C31.558 17.0514 31.1341 16.8758 30.8215 16.5633C30.509 16.2507 30.3334 15.8268 30.3334 15.3848ZM32 10.3848C30.674 10.3848 29.4022 10.9116 28.4645 11.8492C27.5268 12.7869 27 14.0587 27 15.3848C27 16.7108 27.5268 17.9826 28.4645 18.9203C29.4022 19.858 30.674 20.3848 32 20.3848C33.3261 20.3848 34.5979 19.858 35.5356 18.9203C36.4733 17.9826 37 16.7108 37 15.3848C37 14.0587 36.4733 12.7869 35.5356 11.8492C34.5979 10.9116 33.3261 10.3848 32 10.3848ZM13.6667 24.5514C13.6667 22.2514 15.5334 20.3848 17.8334 20.3848H22.8334C25.1334 20.3848 27 22.2514 27 24.5514V28.7181C27 30.4862 26.2977 32.1819 25.0474 33.4321C23.7972 34.6824 22.1015 35.3848 20.3334 35.3848C18.5653 35.3848 16.8696 34.6824 15.6193 33.4321C14.3691 32.1819 13.6667 30.4862 13.6667 28.7181V24.5514ZM17.8334 23.7181C17.6124 23.7181 17.4004 23.8059 17.2441 23.9622C17.0878 24.1185 17 24.3304 17 24.5514V28.7181C17 29.6022 17.3512 30.45 17.9763 31.0751C18.6015 31.7002 19.4493 32.0514 20.3334 32.0514C21.2174 32.0514 22.0653 31.7002 22.6904 31.0751C23.3155 30.45 23.6667 29.6022 23.6667 28.7181V24.5514C23.6667 24.3304 23.5789 24.1185 23.4226 23.9622C23.2663 23.8059 23.0544 23.7181 22.8334 23.7181H17.8334ZM10.3334 24.5514C10.3334 23.5881 10.5134 22.6681 10.8467 21.8248L6.74337 22.9248C5.67657 23.2107 4.76696 23.9085 4.21442 24.8649C3.66189 25.8212 3.51164 26.9577 3.7967 28.0248L4.44337 30.4414C4.67003 31.2872 5.06107 32.08 5.59418 32.7747C6.12729 33.4693 6.79201 34.0521 7.55038 34.4898C8.30875 34.9274 9.14591 35.2114 10.0141 35.3256C10.8822 35.4397 11.7643 35.3816 12.61 35.1548L12.6667 35.1381C11.8978 34.222 11.2994 33.1755 10.9 32.0481C10.1634 32.0519 9.44634 31.8115 8.86077 31.3647C8.2752 30.9178 7.85414 30.2896 7.66337 29.5781L7.0167 27.1614C6.95971 26.9479 6.98985 26.7205 7.1005 26.5293C7.21114 26.338 7.39322 26.1985 7.6067 26.1414L10.3334 25.4081V24.5514ZM28.0534 35.1514L28 35.1414C28.76 34.2314 29.3634 33.1881 29.7667 32.0481C30.5027 32.0511 31.2191 31.8105 31.804 31.3637C32.3888 30.9168 32.8094 30.289 33 29.5781L33.6434 27.1614C33.7004 26.9479 33.6702 26.7205 33.5596 26.5293C33.4489 26.338 33.2669 26.1985 33.0534 26.1414L30.3334 25.4114V24.5514C30.3334 23.5881 30.1534 22.6714 29.8234 21.8248L33.9167 22.9248C34.9835 23.2107 35.8931 23.9085 36.4456 24.8649C36.9982 25.8212 37.1484 26.9577 36.8634 28.0248L36.2167 30.4414C35.99 31.2872 35.599 32.08 35.0659 32.7747C34.5328 33.4693 33.8681 34.0521 33.1097 34.4898C32.3513 34.9274 31.5142 35.2114 30.646 35.3256C29.7779 35.4397 28.8957 35.3816 28.05 35.1548" fill="#31B67D"/>
</svg>
