<svg width="24" height="24" viewBox="0 0 24 24" fill="none" xmlns="http://www.w3.org/2000/svg">
<path d="M18.152 11.355C18.447 11.6499 18.681 12.0001 18.8406 12.3854C19.0003 12.7708 19.0824 13.1839 19.0824 13.601C19.0824 14.0181 19.0003 14.4312 18.8406 14.8166C18.681 15.2019 18.447 15.5521 18.152 15.847L18.142 15.857L12 22L5.85599 15.856L5.84699 15.847C5.54509 15.5454 5.30714 15.186 5.14738 14.7902C4.98761 14.3945 4.90931 13.9706 4.91716 13.544C4.92502 13.1173 5.01886 12.6966 5.19307 12.307C5.36729 11.9174 5.6183 11.567 5.93109 11.2767C6.24388 10.9864 6.61202 10.7621 7.01348 10.6174C7.41493 10.4727 7.84146 10.4104 8.26754 10.4343C8.69363 10.4583 9.1105 10.5679 9.49323 10.7567C9.87596 10.9454 10.2167 11.2095 10.495 11.533L12 13.039L13.45 11.589C13.7311 11.2458 14.081 10.9653 14.4771 10.7656C14.8732 10.5659 15.3067 10.4514 15.7498 10.4294C16.1929 10.4075 16.6356 10.4786 17.0495 10.6382C17.4635 10.7978 17.8393 11.0423 18.153 11.356L18.152 11.355ZM8.99899 5C8.99899 5.39397 9.07659 5.78407 9.22735 6.14805C9.37811 6.51203 9.59909 6.84274 9.87767 7.12132C10.1562 7.3999 10.487 7.62087 10.8509 7.77164C11.2149 7.9224 11.605 8 11.999 8C12.393 8 12.7831 7.9224 13.147 7.77164C13.511 7.62087 13.8417 7.3999 14.1203 7.12132C14.3989 6.84274 14.6199 6.51203 14.7706 6.14805C14.9214 5.78407 14.999 5.39397 14.999 5C14.999 4.60603 14.9214 4.21593 14.7706 3.85195C14.6199 3.48797 14.3989 3.15726 14.1203 2.87868C13.8417 2.6001 13.511 2.37913 13.147 2.22836C12.7831 2.0776 12.393 2 11.999 2C11.605 2 11.2149 2.0776 10.8509 2.22836C10.487 2.37913 10.1562 2.6001 9.87767 2.87868C9.59909 3.15726 9.37811 3.48797 9.22735 3.85195C9.07659 4.21593 8.99899 4.60603 8.99899 5Z" stroke="#31B67D" stroke-width="1.5"/>
</svg>
