<svg width="20" height="20" viewBox="0 0 20 20" fill="none" xmlns="http://www.w3.org/2000/svg">
<path d="M6.1057 1C6.27279 1 6.43303 1.06637 6.55118 1.18452C6.66933 1.30267 6.7357 1.46291 6.7357 1.63V2.8081H13.501V1.6381C13.501 1.47101 13.5674 1.31077 13.6855 1.19262C13.8037 1.07447 13.9639 1.0081 14.131 1.0081C14.2981 1.0081 14.4583 1.07447 14.5765 1.19262C14.6946 1.31077 14.761 1.47101 14.761 1.6381V2.8081H17.2C17.6772 2.8081 18.1349 2.99762 18.4725 3.33499C18.81 3.67236 18.9998 4.12997 19 4.6072V17.2009C18.9998 17.6781 18.81 18.1357 18.4725 18.4731C18.1349 18.8105 17.6772 19 17.2 19H2.8C2.32277 19 1.86507 18.8105 1.52753 18.4731C1.18999 18.1357 1.00024 17.6781 1 17.2009V4.6072C1.00024 4.12997 1.18999 3.67236 1.52753 3.33499C1.86507 2.99762 2.32277 2.8081 2.8 2.8081H5.4757V1.6291C5.47594 1.46217 5.54242 1.30216 5.66054 1.1842C5.77866 1.06625 5.93877 1 6.1057 1ZM2.26 7.9678V17.2009C2.26 17.2718 2.27397 17.342 2.30111 17.4075C2.32824 17.4731 2.36802 17.5326 2.41816 17.5827C2.46831 17.6329 2.52784 17.6727 2.59335 17.6998C2.65887 17.7269 2.72909 17.7409 2.8 17.7409H17.2C17.2709 17.7409 17.3411 17.7269 17.4066 17.6998C17.4722 17.6727 17.5317 17.6329 17.5818 17.5827C17.632 17.5326 17.6718 17.4731 17.6989 17.4075C17.726 17.342 17.74 17.2718 17.74 17.2009V7.9804L2.26 7.9678ZM7.0003 14.1571V15.6565H5.5V14.1571H7.0003ZM10.7497 14.1571V15.6565H9.2503V14.1571H10.7497ZM14.5 14.1571V15.6565H12.9997V14.1571H14.5ZM7.0003 10.5778V12.0772H5.5V10.5778H7.0003ZM10.7497 10.5778V12.0772H9.2503V10.5778H10.7497ZM14.5 10.5778V12.0772H12.9997V10.5778H14.5ZM5.4757 4.0672H2.8C2.72909 4.0672 2.65887 4.08117 2.59335 4.1083C2.52784 4.13544 2.46831 4.17522 2.41816 4.22536C2.36802 4.27551 2.32824 4.33504 2.30111 4.40055C2.27397 4.46607 2.26 4.53629 2.26 4.6072V6.7087L17.74 6.7213V4.6072C17.74 4.53629 17.726 4.46607 17.6989 4.40055C17.6718 4.33504 17.632 4.27551 17.5818 4.22536C17.5317 4.17522 17.4722 4.13544 17.4066 4.1083C17.3411 4.08117 17.2709 4.0672 17.2 4.0672H14.761V4.9033C14.761 5.07039 14.6946 5.23063 14.5765 5.34878C14.4583 5.46693 14.2981 5.5333 14.131 5.5333C13.9639 5.5333 13.8037 5.46693 13.6855 5.34878C13.5674 5.23063 13.501 5.07039 13.501 4.9033V4.0672H6.7357V4.8952C6.7357 5.06229 6.66933 5.22253 6.55118 5.34068C6.43303 5.45883 6.27279 5.5252 6.1057 5.5252C5.93861 5.5252 5.77837 5.45883 5.66022 5.34068C5.54207 5.22253 5.4757 5.06229 5.4757 4.8952V4.0672Z" fill="white"/>
</svg>
