<svg width="19" height="19" viewBox="0 0 19 19" fill="none" xmlns="http://www.w3.org/2000/svg">
<circle cx="9.25" cy="9.25" r="6.75" stroke="#17569D" stroke-width="1.35"/>
<path d="M8.09439 7.70584C8.09439 7.26026 8.43714 6.98117 8.9023 6.9273V8.49907C8.85334 8.48928 8.80927 8.47459 8.7652 8.4599C8.31963 8.31301 8.09439 8.05839 8.09439 7.70584ZM10.5426 10.7612C10.5426 11.2411 10.1754 11.5594 9.65636 11.6034V9.91415C9.69064 9.92394 9.72491 9.93374 9.75429 9.93863C10.3027 10.0904 10.5426 10.3597 10.5426 10.7612ZM9.66615 13.2829L9.66126 12.6611C11.0029 12.5338 11.8549 11.7944 11.8549 10.629C11.8549 9.44409 11.0568 8.94465 10.0726 8.7341L9.65636 8.64596V6.9371C10.1754 7.02034 10.4643 7.41206 10.479 7.80377H11.7325C11.7129 6.78531 10.9148 6.01167 9.67595 5.87946V5.24292H8.88272V5.87456C7.69777 5.98229 6.76744 6.63352 6.76744 7.80867C6.76744 8.92017 7.57047 9.48816 8.48121 9.68891L8.9023 9.78195V11.6034C8.27556 11.5202 7.94749 11.1432 7.92301 10.6927H6.64014C6.64993 11.5985 7.25709 12.5533 8.87782 12.6709L8.87293 13.2829H9.66615Z" fill="#17569D"/>
</svg>
