<svg width="24" height="24" viewBox="0 0 24 24" fill="none" xmlns="http://www.w3.org/2000/svg">
<path d="M15.75 2.25005C12.4275 2.25005 9.75004 4.92755 9.75004 8.25005C9.75004 8.4263 9.77779 8.6648 9.79729 8.88305L3.37504 15.3046C3.02424 15.6531 2.74584 16.0676 2.55585 16.5241C2.36587 16.9807 2.26807 17.4703 2.26807 17.9648C2.26807 18.4593 2.36587 18.9489 2.55585 19.4055C2.74584 19.862 3.02424 20.2765 3.37504 20.6251C3.72358 20.9759 4.13805 21.2543 4.59461 21.4442C5.05116 21.6342 5.54079 21.732 6.03529 21.732C6.5298 21.732 7.01942 21.6342 7.47598 21.4442C7.93254 21.2543 8.34701 20.9759 8.69554 20.6251L15.117 14.2028C15.3345 14.2223 15.5745 14.2501 15.75 14.2501C19.0725 14.2501 21.75 11.5726 21.75 8.25005C21.7539 7.28331 21.5118 6.33147 21.0465 5.48405L20.5778 4.61705L19.875 5.32055L16.6403 8.53055L15.4688 7.35905L18.6788 4.12505L19.3838 3.42155L18.516 2.9528C17.6686 2.48779 16.7167 2.24596 15.75 2.25005ZM15.75 3.75005C16.1145 3.75005 16.386 3.90755 16.71 3.9848L13.875 6.8198L13.335 7.3598L13.875 7.87505L16.125 10.1251L16.641 10.6651L17.1795 10.1251L20.016 7.29005C20.0933 7.61405 20.25 7.88555 20.25 8.25005C20.25 10.7776 18.2775 12.7501 15.75 12.7501C15.45 12.7501 15.21 12.7501 15.0225 12.7028L14.625 12.5858L14.3205 12.8911L7.64029 19.5713C6.71779 20.4938 5.35279 20.4938 4.43029 19.5713L4.40629 19.5473C3.50629 18.6248 3.51379 17.2748 4.42879 16.3598L11.109 9.6803L11.4143 9.3758L11.2958 8.9783C11.2508 8.7908 11.2493 8.5508 11.2493 8.2508C11.2493 5.7233 13.2218 3.7508 15.7493 3.7508L15.75 3.75005Z" fill="#31B67D"/>
</svg>
