<svg width="264" height="73" viewBox="0 0 264 73" fill="none" xmlns="http://www.w3.org/2000/svg">
<path d="M90.6929 31.2719V34.9158H75.4719V15.293H90.3312V18.9369H79.995V23.1987H89.1231V26.7309H79.995V31.2719H90.6929Z" fill="white"/>
<path d="M112.937 15.293L104.428 34.9158H99.935L91.4519 15.293H96.3665L102.351 29.3103L108.418 15.293H112.937Z" fill="white"/>
<path d="M123.865 35.2506C121.823 35.2506 119.983 34.8114 118.342 33.933C116.704 33.0546 115.421 31.8449 114.494 30.304C113.57 28.763 113.107 27.0304 113.107 25.1042C113.107 23.179 113.57 21.4454 114.494 19.9045C115.421 18.3617 116.704 17.1501 118.342 16.2717C119.983 15.3933 121.823 14.9541 123.865 14.9541C125.903 14.9541 127.736 15.3933 129.365 16.2717C130.995 17.1501 132.278 18.3617 133.213 19.9045C134.15 21.4454 134.619 23.179 134.619 25.1042C134.619 27.0304 134.15 28.763 133.213 30.304C132.278 31.8449 130.995 33.0546 129.365 33.933C127.736 34.8114 125.903 35.2506 123.865 35.2506ZM123.865 31.3834C125.023 31.3834 126.07 31.1182 127.008 30.5869C127.945 30.0537 128.68 29.3102 129.212 28.3573C129.746 27.4026 130.014 26.3176 130.014 25.1042C130.014 23.889 129.746 22.804 129.212 21.8511C128.68 20.8983 127.945 20.1566 127.008 19.6253C126.07 19.0921 125.023 18.8251 123.865 18.8251C122.703 18.8251 121.655 19.0921 120.718 19.6253C119.78 20.1566 119.044 20.8983 118.51 21.8511C117.978 22.804 117.712 23.889 117.712 25.1042C117.712 26.3176 117.978 27.4026 118.51 28.3573C119.044 29.3102 119.78 30.0537 120.718 30.5869C121.655 31.1182 122.703 31.3834 123.865 31.3834Z" fill="white"/>
<path d="M138.045 15.293H142.594V31.216H152.453V34.9158H138.045V15.293Z" fill="white"/>
<path d="M163.492 35.2508C160.683 35.2508 158.497 34.4757 156.933 32.9245C155.369 31.3742 154.588 29.1596 154.588 26.2806V15.293H159.137V26.1131C159.137 29.6267 160.597 31.3835 163.518 31.3835C164.943 31.3835 166.029 30.9592 166.777 30.1106C167.525 29.2601 167.9 27.9276 167.9 26.1131V15.293H172.393V26.2806C172.393 29.1596 171.611 31.3742 170.048 32.9245C168.483 34.4757 166.298 35.2508 163.492 35.2508Z" fill="white"/>
<path d="M180.621 18.9927H174.331V15.293H191.465V18.9927H185.17V34.9158H180.621V18.9927Z" fill="white"/>
<path d="M193.906 15.293H198.455V34.9158H193.906V15.293Z" fill="white"/>
<path d="M212.641 35.2506C210.6 35.2506 208.76 34.8114 207.119 33.933C205.48 33.0546 204.198 31.8449 203.271 30.304C202.346 28.763 201.884 27.0304 201.884 25.1042C201.884 23.179 202.346 21.4454 203.271 19.9045C204.198 18.3617 205.48 17.1501 207.119 16.2717C208.76 15.3933 210.6 14.9541 212.641 14.9541C214.679 14.9541 216.513 15.3933 218.141 16.2717C219.772 17.1501 221.055 18.3617 221.99 19.9045C222.926 21.4454 223.395 23.179 223.395 25.1042C223.395 27.0304 222.926 28.763 221.99 30.304C221.055 31.8449 219.772 33.0546 218.141 33.933C216.513 34.8114 214.679 35.2506 212.641 35.2506ZM212.641 31.3834C213.799 31.3834 214.847 31.1182 215.785 30.5869C216.722 30.0537 217.456 29.3102 217.989 28.3573C218.523 27.4026 218.79 26.3176 218.79 25.1042C218.79 23.889 218.523 22.804 217.989 21.8511C217.456 20.8983 216.722 20.1566 215.785 19.6253C214.847 19.0921 213.799 18.8251 212.641 18.8251C211.48 18.8251 210.431 19.0921 209.494 19.6253C208.557 20.1566 207.821 20.8983 207.287 21.8511C206.755 22.804 206.489 23.889 206.489 25.1042C206.489 26.3176 206.755 27.4026 207.287 28.3573C207.821 29.3102 208.557 30.0537 209.494 30.5869C210.431 31.1182 211.48 31.3834 212.641 31.3834Z" fill="white"/>
<path d="M244.854 15.293V34.9158H241.118L231.315 23.0014V34.9158H226.822V15.293H230.584L240.361 27.2074V15.293H244.854Z" fill="white"/>
<path d="M75.291 49.8613V61.8688H73.4751V49.8613H75.291Z" fill="#31FDA5"/>
<path d="M79.5532 49.8613H81.757L85.5864 59.1963H85.7281L89.5576 49.8613H91.7614V61.8688H90.0349V53.1777H89.9231L86.3732 61.8502H84.9414L81.3953 53.174H81.2834V61.8688H79.5532V49.8613Z" fill="#31FDA5"/>
<path d="M96.0188 61.8688V49.8613H100.307C101.244 49.8613 102.019 50.0316 102.634 50.3713C103.25 50.7118 103.709 51.1752 104.013 51.7633C104.319 52.3514 104.472 53.013 104.472 53.7472C104.472 54.4869 104.317 55.1504 104.01 55.7385C103.704 56.3266 103.242 56.7918 102.626 57.1343C102.009 57.4767 101.235 57.6479 100.303 57.6479H97.3537V56.1107H100.139C100.73 56.1107 101.21 56.0093 101.578 55.8055C101.946 55.5999 102.216 55.3198 102.388 54.9643C102.559 54.607 102.645 54.2013 102.645 53.7472C102.645 53.2931 102.559 52.8911 102.388 52.5412C102.216 52.1895 101.945 51.9141 101.575 51.7149C101.204 51.5139 100.717 51.4134 100.113 51.4134H97.8347V61.8688H96.0188Z" fill="#31FDA5"/>
<path d="M107.947 61.8688H106.02L110.349 49.8613H112.448L116.777 61.8688H114.849L111.449 52.0425H111.355L107.947 61.8688ZM108.272 57.1678H114.521V58.6901H108.272V57.1678Z" fill="#31FDA5"/>
<path d="M129.554 53.766H127.723C127.65 53.3742 127.519 53.0309 127.328 52.735C127.135 52.4372 126.901 52.186 126.623 51.9794C126.344 51.771 126.034 51.6146 125.691 51.5104C125.348 51.4043 124.984 51.3504 124.602 51.3504C123.908 51.3504 123.287 51.5244 122.741 51.8715C122.197 52.2195 121.766 52.7294 121.451 53.4012C121.135 54.074 120.977 54.8956 120.977 55.8652C120.977 56.8432 121.135 57.6686 121.451 58.3404C121.766 59.0132 122.198 59.5222 122.745 59.8665C123.294 60.2089 123.91 60.3801 124.594 60.3801C124.975 60.3801 125.336 60.328 125.679 60.2238C126.022 60.1196 126.333 59.967 126.612 59.766C126.889 59.5631 127.126 59.3138 127.32 59.0179C127.514 58.7229 127.648 58.3832 127.723 57.998L129.554 58.0054C129.457 58.5963 129.267 59.1388 128.987 59.632C128.705 60.1261 128.346 60.5532 127.909 60.9124C127.474 61.2697 126.977 61.547 126.418 61.7424C125.858 61.936 125.247 62.0327 124.583 62.0327C123.541 62.0327 122.612 61.7862 121.798 61.292C120.985 60.7989 120.343 60.0898 119.874 59.1667C119.406 58.2437 119.173 57.1438 119.173 55.8652C119.173 54.583 119.408 53.4813 119.877 52.56C120.349 51.6398 120.992 50.9326 121.805 50.4384C122.62 49.9453 123.547 49.6978 124.583 49.6978C125.222 49.6978 125.818 49.7889 126.373 49.9695C126.927 50.1509 127.425 50.4161 127.868 50.766C128.31 51.1159 128.675 51.543 128.964 52.0464C129.255 52.5479 129.451 53.1211 129.554 53.766Z" fill="#31FDA5"/>
<path d="M132.75 51.4209V49.8613H142.06V51.4209H138.309V61.8688H136.497V51.4209H132.75Z" fill="#31FDA5"/>
<path d="M153.545 49.8613V61.8688H151.729V49.8613H153.545Z" fill="#31FDA5"/>
<path d="M167.517 49.8613V61.8688H165.85L159.735 53.0623H159.623V61.8688H157.807V49.8613H159.489L165.608 58.6789H165.72V49.8613H167.517Z" fill="#31FDA5"/>
<path d="M173.593 49.8613V61.8688H171.777V49.8613H173.593Z" fill="#31FDA5"/>
<path d="M177.262 51.4209V49.8613H186.573V51.4209H182.822V61.8688H181.01V51.4209H177.262Z" fill="#31FDA5"/>
<path d="M192.056 49.8613V61.8688H190.24V49.8613H192.056Z" fill="#31FDA5"/>
<path d="M197.336 61.8688H195.408L199.738 49.8613H201.837L206.166 61.8688H204.238L200.838 52.0425H200.744L197.336 61.8688ZM197.661 57.1678H203.91V58.6901H197.661V57.1678Z" fill="#31FDA5"/>
<path d="M207.487 51.4209V49.8613H216.798V51.4209H213.047V61.8688H211.235V51.4209H207.487Z" fill="#31FDA5"/>
<path d="M222.281 49.8613V61.8688H220.465V49.8613H222.281Z" fill="#31FDA5"/>
<path d="M227.594 49.8613L230.943 59.6392H231.081L234.426 49.8613H236.391L232.062 61.8688H229.962L225.633 49.8613H227.594Z" fill="#31FDA5"/>
<path d="M239.738 61.8688V49.8613H247.281V51.4209H241.554V55.0797H246.89V56.6318H241.554V60.3092H247.352V61.8688H239.738Z" fill="#31FDA5"/>
<path fill-rule="evenodd" clip-rule="evenodd" d="M25.6721 14.85C12.3863 19.6747 40.7411 48.546 49.8646 45.1663C53.9747 43.644 54.1817 37.8645 50.9506 35.4135C46.3493 31.9045 41.1541 31.7752 34.5112 20.7327C32.4958 17.3782 31.1255 12.8633 25.646 14.85H25.6721Z" fill="#31B67D"/>
<path fill-rule="evenodd" clip-rule="evenodd" d="M5.2 35.542C6.13127 41.3996 11.3525 38.9486 21.2777 50.301C23.061 52.3388 23.268 52.6747 24.4565 55.1509C28.9544 64.3621 36.9154 59.9244 36.1659 54.1961C35.1321 46.1211 21.9498 33.6074 13.9366 30.0984C9.31008 28.0857 4.45051 30.8205 5.2 35.568V35.542Z" fill="#DCECFF"/>
<mask id="mask0_2009_155" style="mask-type:luminance" maskUnits="userSpaceOnUse" x="43" y="9" width="16" height="16">
<path d="M43.4333 9.43701H58.0848V24.4445H43.4333V9.43701Z" fill="white"/>
</mask>
<g mask="url(#mask0_2009_155)">
<path fill-rule="evenodd" clip-rule="evenodd" d="M48.8569 9.89561C39.3969 12.5532 43.506 27.0535 53.5095 23.7511C61.5479 21.0935 58.3691 7.21291 48.8569 9.89561Z" fill="#31B67D"/>
</g>
<mask id="mask1_2009_155" style="mask-type:luminance" maskUnits="userSpaceOnUse" x="0" y="50" width="15" height="16">
<path d="M0.237793 50.4097H14.796V65.1789H0.237793V50.4097Z" fill="white"/>
</mask>
<g mask="url(#mask1_2009_155)">
<path fill-rule="evenodd" clip-rule="evenodd" d="M14.1696 60.1049C17.4006 49.7845 2.82185 47.4107 0.573379 55.2801C-0.744757 59.9756 1.81414 63.7172 5.22601 64.8003C9.41346 66.117 12.9801 63.8716 14.1696 60.1049Z" fill="#DCECFF"/>
</g>
</svg>
