<svg width="161" height="44" viewBox="0 0 161 44" fill="none" xmlns="http://www.w3.org/2000/svg">
<path d="M55.3088 18.8754V21.1022H46.0263V9.11052H55.0882V11.3374H48.7847V13.9418H54.3515V16.1004H48.7847V18.8754H55.3088Z" fill="white"/>
<path d="M68.8746 9.11052L63.6853 21.1022H60.9451L55.7717 9.11052H58.7689L62.4187 17.6767L66.1185 9.11052H68.8746Z" fill="white"/>
<path d="M75.5387 21.307C74.2937 21.307 73.1714 21.0386 72.1709 20.5018C71.1714 19.9649 70.3892 19.2257 69.8241 18.284C69.2601 17.3423 68.9782 16.2835 68.9782 15.1064C68.9782 13.9298 69.2601 12.8704 69.8241 11.9288C70.3892 10.9859 71.1714 10.2456 72.1709 9.70874C73.1714 9.17194 74.2937 8.90353 75.5387 8.90353C76.7814 8.90353 77.8997 9.17194 78.8929 9.70874C79.8872 10.2456 80.6694 10.9859 81.2396 11.9288C81.811 12.8704 82.0969 13.9298 82.0969 15.1064C82.0969 16.2835 81.811 17.3423 81.2396 18.284C80.6694 19.2257 79.8872 19.9649 78.8929 20.5018C77.8997 21.0386 76.7814 21.307 75.5387 21.307ZM75.5387 18.9436C76.2448 18.9436 76.8838 18.7816 77.4557 18.4569C78.027 18.131 78.475 17.6767 78.7996 17.0944C79.1254 16.511 79.2885 15.8479 79.2885 15.1064C79.2885 14.3637 79.1254 13.7007 78.7996 13.1184C78.475 12.5361 78.027 12.0829 77.4557 11.7582C76.8838 11.4323 76.2448 11.2691 75.5387 11.2691C74.8303 11.2691 74.1908 11.4323 73.6194 11.7582C73.0475 12.0829 72.599 12.5361 72.2732 13.1184C71.9486 13.7007 71.7866 14.3637 71.7866 15.1064C71.7866 15.8479 71.9486 16.511 72.2732 17.0944C72.599 17.6767 73.0475 18.131 73.6194 18.4569C74.1908 18.7816 74.8303 18.9436 75.5387 18.9436Z" fill="white"/>
<path d="M84.1865 9.11052H86.9608V18.8413H92.9733V21.1022H84.1865V9.11052Z" fill="white"/>
<path d="M99.7054 21.307C97.992 21.307 96.6588 20.8333 95.7054 19.8853C94.7515 18.938 94.2751 17.5846 94.2751 15.8252V9.11052H97.0494V15.7228C97.0494 17.87 97.9397 18.9436 99.7213 18.9436C100.59 18.9436 101.252 18.6843 101.709 18.1657C102.165 17.646 102.393 16.8317 102.393 15.7228V9.11052H105.133V15.8252C105.133 17.5846 104.657 18.938 103.703 19.8853C102.749 20.8333 101.417 21.307 99.7054 21.307Z" fill="white"/>
<path d="M110.152 11.3715H106.315V9.11052H116.764V11.3715H112.926V21.1022H110.152V11.3715Z" fill="white"/>
<path d="M118.253 9.11052H121.027V21.1022H118.253V9.11052Z" fill="white"/>
<path d="M129.679 21.307C128.434 21.307 127.312 21.0386 126.311 20.5018C125.312 19.9649 124.529 19.2257 123.964 18.284C123.4 17.3423 123.118 16.2835 123.118 15.1064C123.118 13.9298 123.4 12.8704 123.964 11.9288C124.529 10.9859 125.312 10.2456 126.311 9.70874C127.312 9.17194 128.434 8.90353 129.679 8.90353C130.922 8.90353 132.04 9.17194 133.033 9.70874C134.027 10.2456 134.81 10.9859 135.38 11.9288C135.951 12.8704 136.237 13.9298 136.237 15.1064C136.237 16.2835 135.951 17.3423 135.38 18.284C134.81 19.2257 134.027 19.9649 133.033 20.5018C132.04 21.0386 130.922 21.307 129.679 21.307ZM129.679 18.9436C130.385 18.9436 131.024 18.7816 131.596 18.4569C132.167 18.131 132.615 17.6767 132.94 17.0944C133.266 16.511 133.429 15.8479 133.429 15.1064C133.429 14.3637 133.266 13.7007 132.94 13.1184C132.615 12.5361 132.167 12.0829 131.596 11.7582C131.024 11.4323 130.385 11.2691 129.679 11.2691C128.971 11.2691 128.331 11.4323 127.76 11.7582C127.188 12.0829 126.739 12.5361 126.413 13.1184C126.089 13.7007 125.927 14.3637 125.927 15.1064C125.927 15.8479 126.089 16.511 126.413 17.0944C126.739 17.6767 127.188 18.131 127.76 18.4569C128.331 18.7816 128.971 18.9436 129.679 18.9436Z" fill="white"/>
<path d="M149.324 9.11052V21.1022H147.045L141.067 13.8212V21.1022H138.327V9.11052H140.621L146.584 16.3915V9.11052H149.324Z" fill="white"/>
<path d="M45.9161 30.2357V37.5736H44.8086V30.2357H45.9161Z" fill="#31FDA5"/>
<path d="M48.5154 30.2357H49.8593L52.1947 35.9404H52.2811L54.6166 30.2357H55.9605V37.5736H54.9076V32.2624H54.8394L52.6745 37.5622H51.8013L49.6387 32.2601H49.5705V37.5736H48.5154V30.2357Z" fill="#31FDA5"/>
<path d="M58.5569 37.5736V30.2357H61.172C61.7434 30.2357 62.2164 30.3398 62.591 30.5473C62.9668 30.7554 63.247 31.0386 63.4324 31.398C63.6188 31.7574 63.7121 32.1617 63.7121 32.6104C63.7121 33.0625 63.6177 33.4679 63.4301 33.8273C63.2436 34.1867 62.9622 34.471 62.5864 34.6803C62.2101 34.8895 61.7382 34.9942 61.1697 34.9942H59.371V34.0548H61.0697C61.4301 34.0548 61.7229 33.9928 61.9475 33.8682C62.1714 33.7426 62.3363 33.5714 62.4409 33.3542C62.5455 33.1358 62.5978 32.8879 62.5978 32.6104C62.5978 32.3329 62.5455 32.0872 62.4409 31.8734C62.3363 31.6585 62.1709 31.4901 61.9452 31.3684C61.7189 31.2456 61.4222 31.1842 61.0538 31.1842H59.6643V37.5736H58.5569Z" fill="#31FDA5"/>
<path d="M65.8314 37.5736H64.6557L67.2958 30.2357H68.5761L71.2162 37.5736H70.0406L67.9667 31.5686H67.9098L65.8314 37.5736ZM66.0292 34.7007H69.8404V35.6311H66.0292V34.7007Z" fill="#31FDA5"/>
<path d="M79.008 32.6217H77.8914C77.8471 32.3823 77.7669 32.1725 77.6504 31.9917C77.5333 31.8097 77.39 31.6562 77.2206 31.5299C77.0506 31.4026 76.8613 31.307 76.6521 31.2433C76.4429 31.1785 76.2212 31.1455 75.9881 31.1455C75.5651 31.1455 75.1865 31.2519 74.8534 31.464C74.5214 31.6766 74.2587 31.9883 74.0666 32.3988C73.8738 32.81 73.7778 33.3121 73.7778 33.9046C73.7778 34.5023 73.8738 35.0067 74.0666 35.4172C74.2587 35.8284 74.5219 36.1394 74.8556 36.3498C75.1905 36.5591 75.5663 36.6637 75.9836 36.6637C76.2155 36.6637 76.4361 36.6319 76.6453 36.5682C76.8545 36.5045 77.0438 36.4112 77.2138 36.2884C77.3832 36.1644 77.5276 36.012 77.6459 35.8312C77.7641 35.651 77.846 35.4434 77.8914 35.208L79.008 35.2125C78.9489 35.5736 78.8335 35.9051 78.6623 36.2065C78.4906 36.5085 78.2718 36.7695 78.0051 36.989C77.7397 37.2074 77.4366 37.3768 77.0955 37.4962C76.7544 37.6145 76.3815 37.6736 75.9767 37.6736C75.3411 37.6736 74.7749 37.523 74.278 37.221C73.7823 36.9196 73.3912 36.4863 73.1047 35.9222C72.8193 35.3581 72.6771 34.6859 72.6771 33.9046C72.6771 33.121 72.8204 32.4477 73.1069 31.8848C73.3946 31.3224 73.7869 30.8902 74.2826 30.5882C74.7795 30.2869 75.3446 30.1356 75.9767 30.1356C76.3662 30.1356 76.73 30.1913 77.0683 30.3016C77.4059 30.4125 77.7101 30.5746 77.9801 30.7884C78.2496 31.0022 78.4725 31.2632 78.6487 31.5709C78.8261 31.8774 78.9455 32.2277 79.008 32.6217Z" fill="#31FDA5"/>
<path d="M80.9571 31.1887V30.2357H86.6353V31.1887H84.3476V37.5736H83.2425V31.1887H80.9571Z" fill="#31FDA5"/>
<path d="M93.6391 30.2357V37.5736H92.5316V30.2357H93.6391Z" fill="#31FDA5"/>
<path d="M102.16 30.2357V37.5736H101.143L97.4141 32.1918H97.3459V37.5736H96.2384V30.2357H97.264L100.996 35.6242H101.064V30.2357H102.16Z" fill="#31FDA5"/>
<path d="M105.866 30.2357V37.5736H104.758V30.2357H105.866Z" fill="#31FDA5"/>
<path d="M108.103 31.1887V30.2357H113.781V31.1887H111.494V37.5736H110.389V31.1887H108.103Z" fill="#31FDA5"/>
<path d="M117.125 30.2357V37.5736H116.018V30.2357H117.125Z" fill="#31FDA5"/>
<path d="M120.345 37.5736H119.169L121.81 30.2357H123.09L125.73 37.5736H124.554L122.48 31.5686H122.424L120.345 37.5736ZM120.543 34.7007H124.354V35.6311H120.543V34.7007Z" fill="#31FDA5"/>
<path d="M126.536 31.1887V30.2357H132.214V31.1887H129.926V37.5736H128.821V31.1887H126.536Z" fill="#31FDA5"/>
<path d="M135.557 30.2357V37.5736H134.45V30.2357H135.557Z" fill="#31FDA5"/>
<path d="M138.798 30.2357L140.84 36.2111H140.924L142.964 30.2357H144.162L141.522 37.5736H140.242L137.602 30.2357H138.798Z" fill="#31FDA5"/>
<path d="M146.204 37.5736V30.2357H150.804V31.1887H147.311V33.4247H150.565V34.3732H147.311V36.6205H150.847V37.5736H146.204Z" fill="#31FDA5"/>
<path fill-rule="evenodd" clip-rule="evenodd" d="M15.656 8.83969C7.55369 11.7882 24.8458 29.4317 30.4098 27.3664C32.9163 26.4361 33.0425 22.9042 31.0721 21.4063C28.266 19.2619 25.0977 19.1829 21.0465 12.4347C19.8174 10.3847 18.9817 7.62562 15.6401 8.83969H15.656Z" fill="#31B67D"/>
<path fill-rule="evenodd" clip-rule="evenodd" d="M3.1711 21.4848C3.73904 25.0645 6.92322 23.5666 12.9761 30.5042C14.0636 31.7495 14.1898 31.9548 14.9147 33.468C17.6577 39.0971 22.5127 36.3852 22.0556 32.8846C21.4252 27.9498 13.386 20.3026 8.49911 18.1582C5.67763 16.9282 2.71403 18.5995 3.1711 21.5007V21.4848Z" fill="#DCECFF"/>
<mask id="mask0_2166_212" style="mask-type:luminance" maskUnits="userSpaceOnUse" x="26" y="5" width="10" height="10">
<path d="M26.4877 5.53185H35.4228V14.7031H26.4877V5.53185Z" fill="white"/>
</mask>
<g mask="url(#mask0_2166_212)">
<path fill-rule="evenodd" clip-rule="evenodd" d="M29.7952 5.81219C24.0261 7.43626 26.532 16.2976 32.6326 14.2794C37.5348 12.6553 35.5962 4.17277 29.7952 5.81219Z" fill="#31B67D"/>
</g>
<mask id="mask1_2166_212" style="mask-type:luminance" maskUnits="userSpaceOnUse" x="0" y="30" width="10" height="10">
<path d="M0.144958 30.5707H9.02327V39.5964H0.144958V30.5707Z" fill="white"/>
</mask>
<g mask="url(#mask1_2166_212)">
<path fill-rule="evenodd" clip-rule="evenodd" d="M8.64123 36.4955C10.6117 30.1886 1.72084 28.738 0.349615 33.547C-0.454248 36.4165 1.10629 38.703 3.18701 39.3649C5.74073 40.1696 7.91582 38.7974 8.64123 36.4955Z" fill="#DCECFF"/>
</g>
</svg>
