<svg width="40" height="40" viewBox="0 0 40 40" fill="none" xmlns="http://www.w3.org/2000/svg">
<path d="M11.6665 30V28.3333C11.6665 26.1232 12.5445 24.0036 14.1073 22.4408C15.6701 20.878 17.7897 20 19.9998 20M19.9998 20C22.21 20 24.3296 20.878 25.8924 22.4408C27.4552 24.0036 28.3332 26.1232 28.3332 28.3333V30M19.9998 20C21.3259 20 22.5977 19.4732 23.5354 18.5355C24.4731 17.5979 24.9998 16.3261 24.9998 15C24.9998 13.6739 24.4731 12.4021 23.5354 11.4645C22.5977 10.5268 21.3259 10 19.9998 10C18.6738 10 17.402 10.5268 16.4643 11.4645C15.5266 12.4021 14.9998 13.6739 14.9998 15C14.9998 16.3261 15.5266 17.5979 16.4643 18.5355C17.402 19.4732 18.6738 20 19.9998 20ZM1.6665 30V28.3333C1.6665 27.0073 2.19329 25.7355 3.13097 24.7978C4.06865 23.8601 5.34042 23.3333 6.6665 23.3333M6.6665 23.3333C7.55056 23.3333 8.3984 22.9821 9.02353 22.357C9.64865 21.7319 9.99984 20.8841 9.99984 20C9.99984 19.1159 9.64865 18.2681 9.02353 17.643C8.3984 17.0179 7.55056 16.6667 6.6665 16.6667C5.78245 16.6667 4.9346 17.0179 4.30948 17.643C3.68436 18.2681 3.33317 19.1159 3.33317 20C3.33317 20.8841 3.68436 21.7319 4.30948 22.357C4.9346 22.9821 5.78245 23.3333 6.6665 23.3333ZM38.3332 30V28.3333C38.3332 27.0073 37.8064 25.7355 36.8687 24.7978C35.931 23.8601 34.6592 23.3333 33.3332 23.3333M33.3332 23.3333C34.2172 23.3333 35.0651 22.9821 35.6902 22.357C36.3153 21.7319 36.6665 20.8841 36.6665 20C36.6665 19.1159 36.3153 18.2681 35.6902 17.643C35.0651 17.0179 34.2172 16.6667 33.3332 16.6667C32.4491 16.6667 31.6013 17.0179 30.9761 17.643C30.351 18.2681 29.9998 19.1159 29.9998 20C29.9998 20.8841 30.351 21.7319 30.9761 22.357C31.6013 22.9821 32.4491 23.3333 33.3332 23.3333Z" stroke="white" stroke-width="2.5" stroke-linecap="round" stroke-linejoin="round"/>
</svg>
