<svg width="41" height="41" viewBox="0 0 41 41" fill="none" xmlns="http://www.w3.org/2000/svg">
<g clip-path="url(#clip0_2009_574)">
<path d="M12 30.3845V28.7179C12 26.5077 12.878 24.3881 14.4408 22.8253C16.0036 21.2625 18.1232 20.3845 20.3333 20.3845M20.3333 20.3845C22.5435 20.3845 24.6631 21.2625 26.2259 22.8253C27.7887 24.3881 28.6667 26.5077 28.6667 28.7179V30.3845M20.3333 20.3845C21.6594 20.3845 22.9312 19.8577 23.8689 18.9201C24.8065 17.9824 25.3333 16.7106 25.3333 15.3845C25.3333 14.0584 24.8065 12.7867 23.8689 11.849C22.9312 10.9113 21.6594 10.3845 20.3333 10.3845C19.0072 10.3845 17.7355 10.9113 16.7978 11.849C15.8601 12.7867 15.3333 14.0584 15.3333 15.3845C15.3333 16.7106 15.8601 17.9824 16.7978 18.9201C17.7355 19.8577 19.0072 20.3845 20.3333 20.3845ZM2 30.3845V28.7179C2 27.3918 2.52678 26.12 3.46447 25.1823C4.40215 24.2446 5.67392 23.7179 7 23.7179M7 23.7179C7.88405 23.7179 8.7319 23.3667 9.35702 22.7415C9.98214 22.1164 10.3333 21.2686 10.3333 20.3845C10.3333 19.5005 9.98214 18.6526 9.35702 18.0275C8.7319 17.4024 7.88405 17.0512 7 17.0512C6.11594 17.0512 5.2681 17.4024 4.64298 18.0275C4.01786 18.6526 3.66667 19.5005 3.66667 20.3845C3.66667 21.2686 4.01786 22.1164 4.64298 22.7415C5.2681 23.3667 6.11594 23.7179 7 23.7179ZM38.6667 30.3845V28.7179C38.6667 27.3918 38.1399 26.12 37.2022 25.1823C36.2645 24.2446 34.9927 23.7179 33.6667 23.7179M33.6667 23.7179C34.5507 23.7179 35.3986 23.3667 36.0237 22.7415C36.6488 22.1164 37 21.2686 37 20.3845C37 19.5005 36.6488 18.6526 36.0237 18.0275C35.3986 17.4024 34.5507 17.0512 33.6667 17.0512C32.7826 17.0512 31.9348 17.4024 31.3096 18.0275C30.6845 18.6526 30.3333 19.5005 30.3333 20.3845C30.3333 21.2686 30.6845 22.1164 31.3096 22.7415C31.9348 23.3667 32.7826 23.7179 33.6667 23.7179Z" stroke="#31B67D" stroke-width="2.5" stroke-linecap="round" stroke-linejoin="round"/>
</g>
<defs>
<clipPath id="clip0_2009_574">
<rect width="40" height="40" fill="white" transform="translate(0.333252 0.384521)"/>
</clipPath>
</defs>
</svg>
