<svg width="41" height="41" viewBox="0 0 41 41" fill="none" xmlns="http://www.w3.org/2000/svg">
<path d="M29.4168 12.0513C29.4168 11.7197 29.2851 11.4018 29.0507 11.1674C28.8163 10.933 28.4983 10.8013 28.1668 10.8013C27.8353 10.8013 27.5174 10.933 27.2829 11.1674C27.0485 11.4018 26.9168 11.7197 26.9168 12.0513V14.1346H24.8335C24.502 14.1346 24.184 14.2663 23.9496 14.5007C23.7152 14.7351 23.5835 15.0531 23.5835 15.3846C23.5835 15.7161 23.7152 16.0341 23.9496 16.2685C24.184 16.5029 24.502 16.6346 24.8335 16.6346H26.9168V18.7179C26.9168 19.0495 27.0485 19.3674 27.2829 19.6018C27.5174 19.8362 27.8353 19.9679 28.1668 19.9679C28.4983 19.9679 28.8163 19.8362 29.0507 19.6018C29.2851 19.3674 29.4168 19.0495 29.4168 18.7179V16.6346H31.5002C31.8317 16.6346 32.1496 16.5029 32.384 16.2685C32.6185 16.0341 32.7502 15.7161 32.7502 15.3846C32.7502 15.0531 32.6185 14.7351 32.384 14.5007C32.1496 14.2663 31.8317 14.1346 31.5002 14.1346H29.4168V12.0513Z" fill="#31B67D"/>
<path fill-rule="evenodd" clip-rule="evenodd" d="M38.5836 15.9146C38.5836 10.3712 36.1136 6.23456 32.2669 4.72956C28.7086 3.33456 24.4369 4.3779 20.6669 7.90623C16.8969 4.3779 12.6252 3.33456 9.06691 4.72956C5.22024 6.23456 2.75024 10.3712 2.75024 15.9129C2.75024 19.4446 4.63358 22.9179 6.97858 25.9079C9.34858 28.9296 12.3286 31.6346 14.8152 33.6529L15.0386 33.8362C17.0386 35.4612 18.4852 36.6362 20.6669 36.6362C22.8502 36.6362 24.2936 35.4612 26.2952 33.8362L26.5186 33.6529C29.0052 31.6362 31.9852 28.9296 34.3552 25.9079C36.7002 22.9179 38.5836 19.4446 38.5836 15.9146ZM21.5802 10.5296C25.1002 6.76456 28.7486 6.03623 31.3569 7.05623C33.9702 8.07956 36.0836 11.0729 36.0836 15.9146C36.0836 18.5996 34.6169 21.5212 32.3869 24.3646C30.1802 27.1812 27.3602 29.7512 24.9436 31.7129C22.6219 33.5962 21.8719 34.1346 20.6669 34.1346C19.4619 34.1346 18.7119 33.5962 16.3902 31.7112C13.9736 29.7512 11.1536 27.1796 8.94691 24.3662C6.71524 21.5212 5.25024 18.5996 5.25024 15.9146C5.25024 11.0729 7.36358 8.08123 9.97691 7.05623C12.5852 6.03623 16.2336 6.76456 19.7536 10.5296C19.8705 10.6547 20.0119 10.7545 20.1691 10.8227C20.3262 10.8909 20.4956 10.9261 20.6669 10.9261C20.8382 10.9261 21.0077 10.8909 21.1648 10.8227C21.3219 10.7545 21.4633 10.6547 21.5802 10.5296Z" fill="#31B67D"/>
</svg>
