<svg width="41" height="40" viewBox="0 0 41 40" fill="none" xmlns="http://www.w3.org/2000/svg">
<path d="M29.0836 11.6667C29.0836 11.3352 28.9519 11.0173 28.7175 10.7829C28.483 10.5484 28.1651 10.4167 27.8336 10.4167C27.5021 10.4167 27.1841 10.5484 26.9497 10.7829C26.7153 11.0173 26.5836 11.3352 26.5836 11.6667V13.7501H24.5002C24.1687 13.7501 23.8508 13.8818 23.6164 14.1162C23.3819 14.3506 23.2502 14.6686 23.2502 15.0001C23.2502 15.3316 23.3819 15.6495 23.6164 15.884C23.8508 16.1184 24.1687 16.2501 24.5002 16.2501H26.5836V18.3334C26.5836 18.6649 26.7153 18.9829 26.9497 19.2173C27.1841 19.4517 27.5021 19.5834 27.8336 19.5834C28.1651 19.5834 28.483 19.4517 28.7175 19.2173C28.9519 18.9829 29.0836 18.6649 29.0836 18.3334V16.2501H31.1669C31.4984 16.2501 31.8164 16.1184 32.0508 15.884C32.2852 15.6495 32.4169 15.3316 32.4169 15.0001C32.4169 14.6686 32.2852 14.3506 32.0508 14.1162C31.8164 13.8818 31.4984 13.7501 31.1669 13.7501H29.0836V11.6667Z" fill="white"/>
<path fill-rule="evenodd" clip-rule="evenodd" d="M38.2501 15.53C38.2501 9.98671 35.7801 5.85004 31.9334 4.34504C28.3751 2.95004 24.1034 3.99338 20.3334 7.52171C16.5634 3.99338 12.2917 2.95004 8.73341 4.34504C4.88675 5.85004 2.41675 9.98671 2.41675 15.5284C2.41675 19.06 4.30008 22.5334 6.64508 25.5234C9.01508 28.545 11.9951 31.25 14.4817 33.2684L14.7051 33.4517C16.7051 35.0767 18.1517 36.2517 20.3334 36.2517C22.5167 36.2517 23.9601 35.0767 25.9617 33.4517L26.1851 33.2684C28.6717 31.2517 31.6517 28.545 34.0217 25.5234C36.3667 22.5334 38.2501 19.06 38.2501 15.53ZM21.2467 10.145C24.7667 6.38004 28.4151 5.65171 31.0234 6.67171C33.6367 7.69504 35.7501 10.6884 35.7501 15.53C35.7501 18.215 34.2834 21.1367 32.0534 23.98C29.8467 26.7967 27.0267 29.3667 24.6101 31.3284C22.2884 33.2117 21.5384 33.75 20.3334 33.75C19.1284 33.75 18.3784 33.2117 16.0567 31.3267C13.6401 29.3667 10.8201 26.795 8.61341 23.9817C6.38175 21.1367 4.91675 18.215 4.91675 15.53C4.91675 10.6884 7.03008 7.69671 9.64341 6.67171C12.2517 5.65171 15.9001 6.38004 19.4201 10.145C19.537 10.2702 19.6784 10.37 19.8356 10.4382C19.9927 10.5064 20.1621 10.5416 20.3334 10.5416C20.5047 10.5416 20.6742 10.5064 20.8313 10.4382C20.9884 10.37 21.1298 10.2702 21.2467 10.145Z" fill="white"/>
</svg>
