<svg width="32" height="33" viewBox="0 0 32 33" fill="none" xmlns="http://www.w3.org/2000/svg">
<path d="M15.9999 12.219C13.7062 12.219 11.8343 14.0909 11.8343 16.3846C11.8343 18.6784 13.7062 20.5502 15.9999 20.5502C18.2937 20.5502 20.1655 18.6784 20.1655 16.3846C20.1655 14.0909 18.2937 12.219 15.9999 12.219ZM28.4937 16.3846C28.4937 14.6596 28.5093 12.9502 28.4124 11.2284C28.3155 9.22837 27.8593 7.45337 26.3968 5.99087C24.9312 4.52525 23.1593 4.07212 21.1593 3.97525C19.4343 3.87837 17.7249 3.894 16.003 3.894C14.278 3.894 12.5687 3.87837 10.8468 3.97525C8.84678 4.07212 7.07178 4.52837 5.60928 5.99087C4.14365 7.4565 3.69053 9.22837 3.59365 11.2284C3.49678 12.9534 3.5124 14.6627 3.5124 16.3846C3.5124 18.1065 3.49678 19.819 3.59365 21.5409C3.69053 23.5409 4.14678 25.3159 5.60928 26.7784C7.0749 28.244 8.84678 28.6971 10.8468 28.794C12.5718 28.8909 14.2812 28.8752 16.003 28.8752C17.728 28.8752 19.4374 28.8909 21.1593 28.794C23.1593 28.6971 24.9343 28.2409 26.3968 26.7784C27.8624 25.3127 28.3155 23.5409 28.4124 21.5409C28.5124 19.819 28.4937 18.1096 28.4937 16.3846ZM15.9999 22.794C12.453 22.794 9.59053 19.9315 9.59053 16.3846C9.59053 12.8377 12.453 9.97525 15.9999 9.97525C19.5468 9.97525 22.4093 12.8377 22.4093 16.3846C22.4093 19.9315 19.5468 22.794 15.9999 22.794ZM22.6718 11.2096C21.8437 11.2096 21.1749 10.5409 21.1749 9.71275C21.1749 8.88462 21.8437 8.21587 22.6718 8.21587C23.4999 8.21587 24.1687 8.88462 24.1687 9.71275C24.1689 9.90939 24.1304 10.1041 24.0552 10.2859C23.9801 10.4676 23.8698 10.6327 23.7308 10.7717C23.5917 10.9108 23.4266 11.021 23.2449 11.0962C23.0632 11.1713 22.8684 11.2099 22.6718 11.2096Z" fill="white"/>
</svg>
