<svg width="24" height="24" viewBox="0 0 24 24" fill="none" xmlns="http://www.w3.org/2000/svg">
<g clip-path="url(#clip0_2171_27450)">
<path fill-rule="evenodd" clip-rule="evenodd" d="M3.7825 2.4285C5.0355 2.3375 6.913 2.25 9.5 2.25C12.087 2.25 13.965 2.3375 15.2175 2.4285C15.963 2.483 16.5175 3.037 16.5715 3.7825C16.6625 5.0355 16.75 6.913 16.75 9.5C16.75 12.087 16.6625 13.965 16.5715 15.2175C16.517 15.963 15.963 16.5175 15.217 16.5715C13.9645 16.6625 12.087 16.75 9.5 16.75C6.913 16.75 5.035 16.6625 3.7825 16.5715C3.037 16.517 2.4825 15.963 2.4285 15.217C2.3375 13.965 2.25 12.0875 2.25 9.5C2.25 6.9125 2.3375 5.035 2.4285 3.7825C2.483 3.037 3.037 2.4825 3.7825 2.4285ZM9.5 0.25C6.868 0.25 4.942 0.339 3.6375 0.434C1.9015 0.56 0.56 1.9015 0.434 3.6375C0.339 4.942 0.25 6.868 0.25 9.5C0.25 12.132 0.339 14.058 0.434 15.3625C0.56 17.0985 1.9015 18.44 3.6375 18.566C4.942 18.661 6.868 18.75 9.5 18.75C12.132 18.75 14.058 18.661 15.3625 18.566C17.0985 18.44 18.44 17.0985 18.566 15.3625C18.661 14.058 18.75 12.132 18.75 9.5C18.75 6.868 18.661 4.942 18.566 3.6375C18.44 1.9015 17.0985 0.56 15.3625 0.434C14.058 0.339 12.132 0.25 9.5 0.25ZM14.5 5.25C14.812 5.25 15.1143 5.25117 15.407 5.2535C15.435 5.836 15.4595 6.5015 15.476 7.2545C15.1507 7.25155 14.8253 7.25005 14.5 7.25C11.913 7.25 10.035 7.3375 8.783 7.429C8.037 7.483 7.483 8.037 7.429 8.7825C7.3375 10.0355 7.25 11.913 7.25 14.5C7.25 14.8373 7.2515 15.1627 7.2545 15.476C6.58723 15.4616 5.92018 15.4386 5.2535 15.407C5.25117 15.1143 5.25 14.812 5.25 14.5C5.25 11.868 5.339 9.942 5.434 8.6375C5.56 6.9015 6.9015 5.56 8.6375 5.434C9.942 5.339 11.868 5.25 14.5 5.25ZM5.434 20.3625L5.404 19.9185C6.13602 19.9496 6.86842 19.9712 7.601 19.9835C8.86607 20.0057 10.1314 20.0057 11.3965 19.9835C13.188 19.9535 14.58 19.8825 15.61 19.8075C17.879 19.6425 19.643 17.8785 19.808 15.61C19.9075 14.241 20 12.233 20 9.5C19.9997 8.75067 19.9933 8.05467 19.981 7.412H19.9805C19.9655 6.67167 19.9448 6.00217 19.9185 5.4035C20.0735 5.4135 20.2215 5.42367 20.3625 5.434C22.0985 5.56 23.44 6.9015 23.566 8.6375C23.661 9.942 23.75 11.868 23.75 14.5C23.75 17.132 23.661 19.058 23.566 20.3625C23.44 22.0985 22.0985 23.44 20.3625 23.566C19.058 23.661 17.132 23.75 14.5 23.75C11.868 23.75 9.942 23.661 8.6375 23.566C6.9015 23.44 5.56 22.0985 5.434 20.3625Z" fill="#31B67D"/>
</g>
<defs>
<clipPath id="clip0_2171_27450">
<rect width="24" height="24" fill="white"/>
</clipPath>
</defs>
</svg>
