<svg width="24" height="25" viewBox="0 0 24 25" fill="none" xmlns="http://www.w3.org/2000/svg">
<path d="M4 20.3848C3.45 20.3848 2.97933 20.1891 2.588 19.7978C2.19667 19.4064 2.00067 18.9354 2 18.3848V6.38477C2 5.83477 2.196 5.3641 2.588 4.97277C2.98 4.58143 3.45067 4.38543 4 4.38477H20C20.55 4.38477 21.021 4.58077 21.413 4.97277C21.805 5.36477 22.0007 5.83543 22 6.38477V18.3848C22 18.9348 21.8043 19.4058 21.413 19.7978C21.0217 20.1898 20.5507 20.3854 20 20.3848H4ZM12 13.3848L4 8.38477V18.3848H20V8.38477L12 13.3848ZM12 11.3848L20 6.38477H4L12 11.3848ZM4 8.38477V6.38477V18.3848V8.38477Z" fill="#31B67D"/>
</svg>
