<svg width="40" height="41" viewBox="0 0 40 41" fill="none" xmlns="http://www.w3.org/2000/svg">
<path d="M25.0001 28.7182V30.3849C25.0001 31.711 24.4733 32.9827 23.5356 33.9204C22.5979 34.8581 21.3262 35.3849 20.0001 35.3849C18.674 35.3849 17.4022 34.8581 16.4645 33.9204C15.5269 32.9827 15.0001 31.711 15.0001 30.3849V28.7182M25.0001 28.7182H15.0001M25.0001 28.7182H31.6667C32.1088 28.7182 32.5327 28.5426 32.8453 28.2301C33.1578 27.9175 33.3334 27.4936 33.3334 27.0516V26.0749C33.3333 25.6329 33.1577 25.2091 32.8451 24.8966L31.9951 24.0466C31.8909 23.9427 31.8083 23.8193 31.7519 23.6835C31.6956 23.5476 31.6666 23.402 31.6667 23.2549V17.0516C31.6667 16.7582 31.6556 16.4671 31.6334 16.1782M15.0001 28.7182H8.33341C7.89139 28.7182 7.46746 28.5426 7.1549 28.2301C6.84234 27.9175 6.66675 27.4936 6.66675 27.0516V26.0749C6.66684 25.6329 6.8425 25.2091 7.15508 24.8966L8.00508 24.0449C8.10905 23.9413 8.19156 23.8181 8.2479 23.6826C8.30424 23.547 8.3333 23.4017 8.33341 23.2549V17.0516C8.33306 15.2277 8.76032 13.4291 9.5809 11.8003C10.4015 10.1714 11.5925 8.75766 13.0584 7.67245C14.5243 6.58725 16.2242 5.86085 18.0217 5.55157C19.8192 5.24228 21.6641 5.35873 23.4084 5.89156M31.6334 16.1782C32.4697 15.7009 33.1927 15.048 33.7525 14.2646C34.3124 13.4812 34.696 12.5858 34.8767 11.64C35.0575 10.6942 35.0313 9.72042 34.7998 8.78573C34.5683 7.85104 34.1371 6.97758 33.5358 6.22546C32.9345 5.47334 32.1774 4.8604 31.3167 4.42881C30.4559 3.99722 29.5118 3.75723 28.5494 3.72534C27.587 3.69345 26.6291 3.87042 25.7416 4.24408C24.8542 4.61775 24.0582 5.18089 23.4084 5.89156M31.6334 16.1782C30.2535 16.9659 28.6376 17.2348 27.077 16.9365C25.5164 16.6382 24.1136 15.7923 23.1214 14.5512C22.1293 13.3102 21.613 11.7556 21.6656 10.1676C21.7182 8.57956 22.3363 7.06421 23.4084 5.89156M23.4084 5.89156H23.4117" stroke="#31B67D" stroke-width="3.33333" stroke-linecap="round" stroke-linejoin="round"/>
</svg>
