<svg width="41" height="41" viewBox="0 0 41 41" fill="none" xmlns="http://www.w3.org/2000/svg">
<path d="M5.6665 26.3853H11.1255C11.5058 26.3853 11.8672 26.4776 12.2231 26.6753C12.5823 26.8749 12.8627 27.1381 13.0776 27.4702L13.0952 27.4976L13.1147 27.5229C14.0095 28.7262 15.119 29.6739 16.437 30.356C17.7603 31.0406 19.1748 31.3852 20.6665 31.3853C22.1836 31.3853 23.6134 31.0423 24.9399 30.356C26.2524 29.6768 27.3459 28.7331 28.2114 27.5337C28.4963 27.1612 28.8206 26.8779 29.1841 26.6704C29.5298 26.4731 29.8669 26.3853 30.2085 26.3853H35.6665C36.359 26.3853 36.8924 26.6083 37.3345 27.0503C37.7766 27.4924 38.0005 28.0256 38.0005 28.7183V33.7183C38.0005 33.9381 37.9364 34.0748 37.814 34.1968C37.6897 34.3205 37.5511 34.3847 37.3315 34.3853H29.0005C28.7807 34.3853 28.644 34.3211 28.522 34.1987C28.4291 34.1055 28.3702 34.0042 28.3462 33.8667L28.3335 33.7163V29.6499L26.7524 30.7798C25.8635 31.4147 24.9073 31.895 23.8813 32.2241C22.8578 32.5525 21.7874 32.7183 20.6665 32.7183C19.5787 32.7182 18.5174 32.5479 17.479 32.2065C16.4361 31.8637 15.4711 31.3752 14.5815 30.7388L13.0005 29.6069V33.7183C13.0005 33.9381 12.9366 34.0761 12.813 34.1997C12.6896 34.3231 12.5526 34.3858 12.3354 34.3853H4.00049C3.78067 34.3853 3.64396 34.3211 3.52197 34.1987C3.42906 34.1055 3.37018 34.0042 3.34619 33.8667L3.3335 33.7163V28.7183C3.3335 28.0329 3.5585 27.5019 4.01221 27.0581C4.47821 26.6024 5.01188 26.3853 5.6665 26.3853ZM7.3335 14.7183C8.49815 14.7183 9.42772 15.1016 10.1899 15.8638C10.952 16.6259 11.3344 17.5544 11.3335 18.7173V18.7183C11.3335 19.8497 10.9539 20.7766 10.1841 21.5581C9.4223 22.3313 8.49502 22.7183 7.3335 22.7183C6.2068 22.7183 5.28109 22.3358 4.49854 21.5532C3.71598 20.7707 3.3335 19.845 3.3335 18.7183C3.3335 17.558 3.72018 16.6306 4.49365 15.8687C5.2751 15.0989 6.20221 14.7193 7.3335 14.7183ZM34.0005 14.7183C35.1649 14.7183 36.0938 15.1017 36.856 15.8638C37.6181 16.6259 38.0014 17.5543 38.0005 18.7173V18.7183C38.0005 19.8497 37.6209 20.7766 36.8511 21.5581C36.0893 22.3313 35.1619 22.7182 34.0005 22.7183C32.8739 22.7183 31.948 22.3357 31.1655 21.5532C30.383 20.7707 30.0005 19.845 30.0005 18.7183C30.0005 17.558 30.3872 16.6306 31.1606 15.8687C31.8935 15.1469 32.7543 14.7684 33.7915 14.7231L34.0005 14.7183ZM16.5415 4.71826C17.1644 4.71826 17.7668 4.85645 18.3579 5.14111C18.9663 5.43408 19.4869 5.82144 19.9263 6.30615L20.6675 7.12451L21.4087 6.30615C21.8478 5.82084 22.3667 5.4327 22.9741 5.14111C23.5656 4.85718 24.1688 4.71927 24.7925 4.71826C25.9526 4.71841 26.8902 5.10503 27.6685 5.8833C28.451 6.66586 28.8335 7.59156 28.8335 8.71826C28.8335 9.69785 28.454 10.7878 27.5669 12.0044C26.6585 13.2501 24.6844 15.3017 21.5698 18.1938L21.5659 18.1968C21.3026 18.4436 21.0255 18.5512 20.689 18.5513C20.3521 18.5513 20.0499 18.4429 19.7495 18.1802C16.643 15.2949 14.673 13.2481 13.7661 12.0044C12.879 10.7878 12.5005 9.69785 12.5005 8.71826C12.5005 7.59156 12.883 6.66586 13.6655 5.8833C14.4438 5.10507 15.3813 4.71833 16.5415 4.71826ZM24.7915 6.05127C24.2532 6.05133 23.7487 6.21157 23.2925 6.48975C22.8588 6.75426 22.4551 7.12421 22.0767 7.56396L20.6948 9.16162L19.3354 7.64307H19.3364C18.9144 7.16073 18.4822 6.75775 18.0396 6.48877C17.584 6.21196 17.0808 6.05127 16.5435 6.05127C15.8191 6.05128 15.1656 6.30659 14.6411 6.81006C14.1071 7.32275 13.8335 7.98087 13.8335 8.71826C13.8335 9.26825 14.0313 9.81934 14.3032 10.3354C14.5815 10.8635 14.9792 11.4338 15.4761 12.0405C16.4658 13.2491 17.98 14.7797 19.9917 16.6226L20.6675 17.2417L21.3423 16.6226C23.3538 14.7786 24.8674 13.2477 25.8569 12.0405C26.3539 11.4343 26.7524 10.8647 27.0308 10.3364C27.3029 9.82002 27.5005 9.26858 27.5005 8.71826C27.5005 7.98056 27.2274 7.32156 26.6919 6.80908C26.1683 6.30816 25.5165 6.05303 24.7944 6.05127H24.7915Z" stroke="#31B67D" stroke-width="2"/>
</svg>
