<svg width="25" height="25" viewBox="0 0 25 25" fill="none" xmlns="http://www.w3.org/2000/svg">
<path d="M2.27002 20.25V16.75C2.27002 16.35 2.40169 16.0066 2.66502 15.72C2.92769 15.432 3.25102 15.2753 3.63502 15.25H6.52502C6.79435 15.25 7.05002 15.314 7.29202 15.442C7.53402 15.57 7.73402 15.7566 7.89202 16.002C8.40135 16.716 9.03569 17.2693 9.79502 17.662C10.555 18.054 11.3734 18.25 12.25 18.25C13.1307 18.25 13.954 18.054 14.72 17.662C15.486 17.27 16.1217 16.7166 16.627 16.002C16.7924 15.7573 16.9954 15.5706 17.236 15.442C17.476 15.314 17.7224 15.25 17.975 15.25H20.865C21.2524 15.276 21.58 15.4326 21.848 15.72C22.116 16.0066 22.25 16.35 22.25 16.75V20.25H16.25V17.821C15.6927 18.2763 15.073 18.6283 14.391 18.877C13.7104 19.1256 12.9967 19.25 12.25 19.25C11.5207 19.25 10.8174 19.128 10.14 18.884C9.46335 18.6393 8.84002 18.2893 8.27002 17.834V20.25H2.27002ZM4.82702 13.48C4.14702 13.48 3.56035 13.2333 3.06702 12.74C2.57369 12.2466 2.32702 11.66 2.32702 10.98C2.32702 10.2846 2.57369 9.69431 3.06702 9.20898C3.56035 8.72365 4.14702 8.48098 4.82702 8.48098C5.52302 8.48098 6.11369 8.72365 6.59902 9.20898C7.08435 9.69431 7.32702 10.285 7.32702 10.981C7.32702 11.6603 7.08435 12.247 6.59902 12.741C6.11369 13.2343 5.52302 13.481 4.82702 13.481M19.673 13.481C18.993 13.481 18.4064 13.2343 17.913 12.741C17.4197 12.247 17.173 11.6603 17.173 10.981C17.173 10.285 17.4197 9.69431 17.913 9.20898C18.4064 8.72365 18.993 8.48098 19.673 8.48098C20.369 8.48098 20.9597 8.72365 21.445 9.20898C21.9304 9.69431 22.173 10.285 22.173 10.981C22.173 11.6603 21.9304 12.247 21.445 12.741C20.9597 13.2343 20.369 13.481 19.673 13.481ZM12.25 11.366C11.54 10.768 10.8937 10.2206 10.311 9.72398C9.72835 9.22731 9.23469 8.75265 8.83002 8.29998C8.42535 7.84732 8.10869 7.40265 7.88002 6.96598C7.65135 6.52932 7.53802 6.07265 7.54002 5.59598C7.54002 4.95532 7.76735 4.40732 8.22202 3.95198C8.67735 3.49665 9.22735 3.26898 9.87202 3.26898C10.3134 3.26898 10.7314 3.37632 11.126 3.59098C11.5207 3.80632 11.8957 4.12732 12.251 4.55398C12.6064 4.13998 12.9877 3.82232 13.395 3.60098C13.8024 3.37965 14.2204 3.26898 14.649 3.26898C15.2944 3.26898 15.841 3.49998 16.289 3.96198C16.737 4.42398 16.9614 4.98798 16.962 5.65398C16.962 6.10531 16.8487 6.54598 16.622 6.97598C16.3954 7.40598 16.0787 7.84732 15.672 8.29998C15.2654 8.75265 14.7714 9.22731 14.19 9.72398C13.6087 10.2206 12.962 10.768 12.25 11.366ZM12.25 10.031C13.5274 9.02098 14.4654 8.16365 15.064 7.45898C15.6627 6.75432 15.962 6.14632 15.962 5.63498C15.962 5.24832 15.833 4.92432 15.575 4.66298C15.317 4.40165 15.0017 4.27032 14.629 4.26898C14.2877 4.26898 13.9894 4.37865 13.734 4.59798C13.478 4.81732 13.2244 5.05665 12.973 5.31598L12.256 6.07898L11.539 5.32698C11.2797 5.06032 11.022 4.81732 10.766 4.59798C10.5107 4.37865 10.2124 4.26898 9.87102 4.26898C9.49769 4.26898 9.18235 4.39698 8.92502 4.65298C8.66702 4.90898 8.53802 5.22332 8.53802 5.59598C8.53802 6.13332 8.83435 6.75098 9.42702 7.44898C10.0197 8.14698 10.9607 9.00765 12.25 10.031Z" fill="#31B67D"/>
</svg>
