<svg width="20" height="20" viewBox="0 0 20 20" fill="none" xmlns="http://www.w3.org/2000/svg">
<path d="M3.19432 3.33329H6.93599L8.14182 6.34829L6.20432 7.63996C6.09022 7.71608 5.99668 7.81919 5.93199 7.94014C5.8673 8.06109 5.83347 8.19613 5.83349 8.33329C5.83599 8.41163 5.83349 8.33413 5.83349 8.33413V8.35163C5.8339 8.38889 5.83557 8.42614 5.83849 8.46329C5.84293 8.53218 5.85265 8.62385 5.86765 8.73829C5.90015 8.96329 5.96265 9.27329 6.08432 9.63829C6.32932 10.3716 6.80932 11.3208 7.74432 12.2558C8.67932 13.1908 9.62849 13.6708 10.361 13.9158C10.7268 14.0375 11.036 14.0991 11.2627 14.1325C11.3905 14.151 11.5193 14.1622 11.6485 14.1658L11.6593 14.1666H11.666C11.666 14.1666 11.7593 14.1616 11.6668 14.1666C11.8215 14.1665 11.9732 14.1234 12.1048 14.042C12.2363 13.9606 12.3427 13.8442 12.4118 13.7058L12.9702 12.5891L16.6668 13.2058V16.8058C14.9077 17.06 10.156 17.3108 6.42265 13.5775C2.68932 9.84413 2.93932 5.09163 3.19432 3.33329ZM7.56099 8.73829L9.06682 7.73496C9.38494 7.52277 9.62042 7.20764 9.73376 6.84243C9.8471 6.47722 9.83141 6.08414 9.68932 5.72913L8.48349 2.71413C8.35975 2.40488 8.14618 2.1398 7.87035 1.95309C7.59452 1.76638 7.26907 1.6666 6.93599 1.66663H3.15099C2.39349 1.66663 1.68099 2.19246 1.55682 3.01413C1.27349 4.88246 0.889319 10.4008 5.24432 14.7558C9.59932 19.1108 15.1177 18.7258 16.986 18.4433C17.8077 18.3183 18.3335 17.6066 18.3335 16.8491V13.2058C18.3335 12.8113 18.1936 12.4295 17.9386 12.1284C17.6837 11.8274 17.3301 11.6265 16.941 11.5616L13.2443 10.9458C12.8927 10.8871 12.5316 10.9427 12.2139 11.1044C11.8962 11.2661 11.6388 11.5253 11.4793 11.8441L11.191 12.4216C11.0891 12.3963 10.9882 12.3671 10.8885 12.3341C10.3718 12.1625 9.65432 11.8091 8.92265 11.0775C8.19099 10.3458 7.83765 9.62829 7.66599 9.11079C7.62552 8.98831 7.59076 8.86401 7.56182 8.73829H7.56099Z" fill="white"/>
</svg>
