<svg width="41" height="40" viewBox="0 0 41 40" fill="none" xmlns="http://www.w3.org/2000/svg">
<g clip-path="url(#clip0_2128_254)">
<path d="M3.54663 15.9517C3.54663 17.0329 3.97614 18.0698 4.74066 18.8343C5.50518 19.5988 6.5421 20.0283 7.6233 20.0283C8.7045 20.0283 9.74141 19.5988 10.5059 18.8343C11.2705 18.0698 11.7 17.0329 11.7 15.9517C11.7 14.8705 11.2705 13.8336 10.5059 13.069C9.74141 12.3045 8.7045 11.875 7.6233 11.875C6.5421 11.875 5.50518 12.3045 4.74066 13.069C3.97614 13.8336 3.54663 14.8705 3.54663 15.9517ZM29.6333 15.9517C29.6333 16.487 29.7387 17.0171 29.9436 17.5117C30.1485 18.0063 30.4488 18.4558 30.8273 18.8343C31.2059 19.2129 31.6553 19.5131 32.1499 19.718C32.6445 19.9229 33.1746 20.0283 33.71 20.0283C34.2453 20.0283 34.7754 19.9229 35.27 19.718C35.7646 19.5131 36.214 19.2129 36.5926 18.8343C36.9712 18.4558 37.2714 18.0063 37.4763 17.5117C37.6812 17.0171 37.7866 16.487 37.7866 15.9517C37.7866 14.8705 37.3571 13.8336 36.5926 13.069C35.8281 12.3045 34.7912 11.875 33.71 11.875C32.6288 11.875 31.5918 12.3045 30.8273 13.069C30.0628 13.8336 29.6333 14.8705 29.6333 15.9517Z" stroke="white" stroke-width="2.5" stroke-linecap="round" stroke-linejoin="round"/>
<path d="M28.0001 38.5415V27.3181C25.9525 27.1288 24.0044 26.347 22.3939 25.0683C20.7835 23.7896 19.5804 22.0695 18.9317 20.1181L17.5284 15.9098C17.4164 15.5722 17.3793 15.2143 17.4196 14.8609C17.4599 14.5076 17.5766 14.1672 17.7617 13.8635C17.9468 13.5598 18.1957 13.3 18.4913 13.1022C18.7869 12.9044 19.1221 12.7734 19.4734 12.7181C20.0649 12.644 20.6636 12.7809 21.1642 13.1046C21.6647 13.4284 22.0351 13.9183 22.2101 14.4881L23.5734 18.5765C23.9521 19.7119 24.6786 20.6994 25.6499 21.3988C26.6213 22.0982 27.7881 22.4741 28.9851 22.4731H36.1517C36.5801 22.4729 37.0042 22.5571 37.4001 22.7208C37.7959 22.8845 38.1555 23.1246 38.4586 23.4273C38.7616 23.73 39.002 24.0894 39.1662 24.4851C39.3303 24.8807 39.4149 25.3048 39.4151 25.7331V38.5498" stroke="white" stroke-width="2.5" stroke-linecap="round" stroke-linejoin="round"/>
<path d="M18.0884 17.5799L17.7551 18.5699C17.377 19.7082 16.6495 20.6983 15.676 21.3991C14.7026 22.0999 13.5329 22.4758 12.3334 22.4733H5.17508C4.31192 22.4737 3.48416 22.8164 2.87334 23.4263C2.26253 24.0362 1.91851 24.8634 1.91675 25.7266V38.5416M13.3334 38.5416V27.3183C14.7621 27.1858 16.1488 26.7642 17.4095 26.0792C18.6702 25.3941 19.7784 24.4599 20.6667 23.3333M19.8334 1.45825V4.79159M26.3567 4.93325L24.0001 7.29325M13.3101 4.93325L15.6667 7.29325" stroke="white" stroke-width="2.5" stroke-linecap="round" stroke-linejoin="round"/>
</g>
<defs>
<clipPath id="clip0_2128_254">
<rect width="40" height="40" fill="white" transform="translate(0.666748)"/>
</clipPath>
</defs>
</svg>
