<svg width="40" height="40" viewBox="0 0 40 40" fill="none" xmlns="http://www.w3.org/2000/svg">
<g clip-path="url(#clip0_2161_204)">
<path d="M2.87988 15.9517C2.87988 17.0329 3.30939 18.0698 4.07391 18.8343C4.83843 19.5988 5.87535 20.0283 6.95655 20.0283C8.03775 20.0283 9.07466 19.5988 9.83919 18.8343C10.6037 18.0698 11.0332 17.0329 11.0332 15.9517C11.0332 14.8705 10.6037 13.8336 9.83919 13.069C9.07466 12.3045 8.03775 11.875 6.95655 11.875C5.87535 11.875 4.83843 12.3045 4.07391 13.069C3.30939 13.8336 2.87988 14.8705 2.87988 15.9517ZM28.9665 15.9517C28.9665 16.487 29.072 17.0171 29.2769 17.5117C29.4817 18.0063 29.782 18.4558 30.1606 18.8343C30.5391 19.2129 30.9885 19.5131 31.4831 19.718C31.9777 19.9229 32.5079 20.0283 33.0432 20.0283C33.5786 20.0283 34.1087 19.9229 34.6033 19.718C35.0979 19.5131 35.5473 19.2129 35.9259 18.8343C36.3044 18.4558 36.6047 18.0063 36.8096 17.5117C37.0144 17.0171 37.1199 16.487 37.1199 15.9517C37.1199 14.8705 36.6904 13.8336 35.9259 13.069C35.1613 12.3045 34.1244 11.875 33.0432 11.875C31.962 11.875 30.9251 12.3045 30.1606 13.069C29.3961 13.8336 28.9665 14.8705 28.9665 15.9517Z" stroke="#31B67D" stroke-width="2.5" stroke-linecap="round" stroke-linejoin="round"/>
<path d="M27.3333 38.5415V27.3181C25.2857 27.1288 23.3376 26.347 21.7272 25.0683C20.1167 23.7896 18.9136 22.0695 18.265 20.1181L16.8617 15.9098C16.7497 15.5722 16.7125 15.2143 16.7528 14.8609C16.7931 14.5076 16.9098 14.1672 17.0949 13.8635C17.28 13.5598 17.529 13.3 17.8246 13.1022C18.1202 12.9044 18.4553 12.7734 18.8067 12.7181C19.3982 12.644 19.9969 12.7809 20.4974 13.1046C20.998 13.4284 21.3683 13.9183 21.5433 14.4881L22.9067 18.5765C23.2853 19.7119 24.0119 20.6994 24.9832 21.3988C25.9545 22.0982 27.1214 22.4741 28.3183 22.4731H35.485C35.9133 22.4729 36.3375 22.5571 36.7333 22.7208C37.1291 22.8845 37.4888 23.1246 37.7918 23.4273C38.0949 23.73 38.3353 24.0894 38.4994 24.4851C38.6635 24.8807 38.7481 25.3048 38.7483 25.7331V38.5498" stroke="#31B67D" stroke-width="2.5" stroke-linecap="round" stroke-linejoin="round"/>
<path d="M17.4217 17.5799L17.0883 18.5699C16.7103 19.7082 15.9827 20.6983 15.0093 21.3991C14.0358 22.0999 12.8661 22.4758 11.6667 22.4733H4.50833C3.64517 22.4737 2.81741 22.8164 2.2066 23.4263C1.59578 24.0362 1.25177 24.8634 1.25 25.7266V38.5416M12.6667 38.5416V27.3183C14.0953 27.1858 15.4821 26.7642 16.7427 26.0792C18.0034 25.3941 19.1116 24.4599 20 23.3333M19.1667 1.45825V4.79159M25.69 4.93325L23.3333 7.29325M12.6433 4.93325L15 7.29325" stroke="#31B67D" stroke-width="2.5" stroke-linecap="round" stroke-linejoin="round"/>
</g>
<defs>
<clipPath id="clip0_2161_204">
<rect width="40" height="40" fill="white"/>
</clipPath>
</defs>
</svg>
