<svg width="41" height="41" viewBox="0 0 41 41" fill="none" xmlns="http://www.w3.org/2000/svg">
<path d="M19 35.3848V32.0514H32.3333V20.2181C32.3333 16.9681 31.2017 14.2114 28.9383 11.9481C26.675 9.68477 23.9178 8.55254 20.6667 8.55143C17.4156 8.55032 14.6589 9.68254 12.3967 11.9481C10.1344 14.2137 9.00222 16.9703 9 20.2181V30.3848H7.33333C6.41667 30.3848 5.63222 30.0587 4.98 29.4064C4.32778 28.7542 4.00111 27.9692 4 27.0514V23.7181C4 23.1348 4.14611 22.5864 4.43833 22.0731C4.73056 21.5598 5.14 21.1498 5.66667 20.8431L5.79167 18.6348C6.01389 16.7459 6.56278 14.9959 7.43833 13.3848C8.31389 11.7737 9.41111 10.3709 10.73 9.17643C12.0489 7.98199 13.5622 7.05143 15.27 6.38477C16.9778 5.7181 18.7767 5.38477 20.6667 5.38477C22.5567 5.38477 24.3483 5.7181 26.0417 6.38477C27.735 7.05143 29.2489 7.97532 30.5833 9.15643C31.9178 10.3375 33.015 11.7331 33.875 13.3431C34.735 14.9531 35.2906 16.7031 35.5417 18.5931L35.6667 20.7598C36.1944 21.0098 36.6044 21.3848 36.8967 21.8848C37.1889 22.3848 37.3344 22.9125 37.3333 23.4681V27.3014C37.3333 27.857 37.1878 28.3848 36.8967 28.8848C36.6056 29.3848 36.1956 29.7598 35.6667 30.0098V32.0514C35.6667 32.9681 35.3406 33.7531 34.6883 34.4064C34.0361 35.0598 33.2511 35.3859 32.3333 35.3848H19ZM15.6667 23.7181C15.1944 23.7181 14.7989 23.5581 14.48 23.2381C14.1611 22.9181 14.0011 22.5225 14 22.0514C13.9989 21.5803 14.1589 21.1848 14.48 20.8648C14.8011 20.5448 15.1967 20.3848 15.6667 20.3848C16.1367 20.3848 16.5328 20.5448 16.855 20.8648C17.1772 21.1848 17.3367 21.5803 17.3333 22.0514C17.33 22.5225 17.17 22.9187 16.8533 23.2398C16.5367 23.5609 16.1411 23.7203 15.6667 23.7181ZM25.6667 23.7181C25.1944 23.7181 24.7989 23.5581 24.48 23.2381C24.1611 22.9181 24.0011 22.5225 24 22.0514C23.9989 21.5803 24.1589 21.1848 24.48 20.8648C24.8011 20.5448 25.1967 20.3848 25.6667 20.3848C26.1367 20.3848 26.5328 20.5448 26.855 20.8648C27.1772 21.1848 27.3367 21.5803 27.3333 22.0514C27.33 22.5225 27.17 22.9187 26.8533 23.2398C26.5367 23.5609 26.1411 23.7203 25.6667 23.7181ZM10.7083 21.1348C10.5139 18.1903 11.4028 15.6625 13.375 13.5514C15.3472 11.4403 17.8056 10.3848 20.75 10.3848C23.2222 10.3848 25.3961 11.1692 27.2717 12.7381C29.1472 14.307 30.2789 16.3148 30.6667 18.7614C28.1389 18.7325 25.8128 18.0514 23.6883 16.7181C21.5639 15.3848 19.9317 13.5792 18.7917 11.3014C18.3472 13.5237 17.41 15.5031 15.98 17.2398C14.55 18.9764 12.7928 20.2748 10.7083 21.1348Z" fill="#31B67D"/>
</svg>
