<svg width="40" height="41" viewBox="0 0 40 41" fill="none" xmlns="http://www.w3.org/2000/svg">
<path d="M19.9999 37.0516C10.7949 37.0516 3.33325 29.5899 3.33325 20.3849C3.33325 11.1799 10.7949 3.71826 19.9999 3.71826C29.2049 3.71826 36.6666 11.1799 36.6666 20.3849C36.6666 29.5899 29.2049 37.0516 19.9999 37.0516ZM19.9999 33.7183C23.5361 33.7183 26.9275 32.3135 29.428 29.813C31.9285 27.3125 33.3333 23.9211 33.3333 20.3849C33.3333 16.8487 31.9285 13.4573 29.428 10.9568C26.9275 8.45635 23.5361 7.05159 19.9999 7.05159C16.4637 7.05159 13.0723 8.45635 10.5718 10.9568C8.07134 13.4573 6.66659 16.8487 6.66659 20.3849C6.66659 23.9211 8.07134 27.3125 10.5718 29.813C13.0723 32.3135 16.4637 33.7183 19.9999 33.7183ZM21.6666 20.3849H28.3333V23.7183H18.3333V12.0516H21.6666V20.3849Z" fill="#31B67D"/>
</svg>
