<svg width="20" height="20" viewBox="0 0 20 20" fill="none" xmlns="http://www.w3.org/2000/svg">
<path d="M9.99984 13.7291C11.3748 12.618 12.4132 11.5486 13.1148 10.5208C13.8165 9.49302 14.1671 8.52774 14.1665 7.62496C14.1665 6.37496 13.7776 5.34718 12.9998 4.54163C12.2221 3.73607 11.2221 3.33329 9.99984 3.33329C8.77762 3.33329 7.77761 3.73607 6.99984 4.54163C6.22206 5.34718 5.83317 6.37496 5.83317 7.62496C5.83317 8.52774 6.184 9.49302 6.88567 10.5208C7.58734 11.5486 8.62539 12.618 9.99984 13.7291ZM9.99984 15.8333C8.0415 14.3888 6.57984 12.9861 5.61484 11.625C4.64984 10.2638 4.16706 8.93051 4.1665 7.62496C4.1665 5.88885 4.70817 4.4619 5.7915 3.34413C6.87484 2.22635 8.27762 1.66718 9.99984 1.66663C11.7221 1.66607 13.1248 2.22524 14.2082 3.34413C15.2915 4.46302 15.8332 5.88996 15.8332 7.62496C15.8332 8.93051 15.3507 10.2638 14.3857 11.625C13.4207 12.9861 11.9587 14.3888 9.99984 15.8333ZM9.99984 9.16663C10.4582 9.16663 10.8507 9.00357 11.1773 8.67746C11.504 8.35135 11.6671 7.95885 11.6665 7.49996C11.6659 7.04107 11.5029 6.64885 11.1773 6.32329C10.8518 5.99774 10.4593 5.8344 9.99984 5.83329C9.54039 5.83218 9.14817 5.99551 8.82317 6.32329C8.49817 6.65107 8.33484 7.04329 8.33317 7.49996C8.3315 7.95663 8.49484 8.34913 8.82317 8.67746C9.1515 9.00579 9.54373 9.16885 9.99984 9.16663ZM4.1665 18.3333V16.6666H15.8332V18.3333H4.1665Z" fill="white"/>
</svg>
