<svg width="32" height="33" viewBox="0 0 32 33" fill="none" xmlns="http://www.w3.org/2000/svg">
<path d="M29.9466 8.38493C28.9199 8.85159 27.8132 9.15826 26.6666 9.30493C27.8399 8.59826 28.7466 7.47826 29.1732 6.13159C28.0666 6.79826 26.8399 7.26493 25.5466 7.5316C24.4932 6.38493 23.0132 5.71826 21.3332 5.71826C18.1999 5.71826 15.6399 8.27826 15.6399 11.4383C15.6399 11.8916 15.6932 12.3316 15.7866 12.7449C11.0399 12.5049 6.81322 10.2249 3.99989 6.77159C3.50656 7.61159 3.22656 8.59826 3.22656 9.63826C3.22656 11.6249 4.22656 13.3849 5.77322 14.3849C4.82656 14.3849 3.94656 14.1183 3.17322 13.7183V13.7583C3.17322 16.5316 5.14656 18.8516 7.75989 19.3716C6.92101 19.6022 6.03994 19.6341 5.18656 19.4649C5.5487 20.6016 6.25794 21.5961 7.21458 22.3088C8.17122 23.0215 9.32715 23.4165 10.5199 23.4383C8.49811 25.0389 5.9919 25.9041 3.41322 25.8916C2.95989 25.8916 2.50656 25.8649 2.05322 25.8116C4.58656 27.4383 7.59989 28.3849 10.8266 28.3849C21.3332 28.3849 27.1066 19.6649 27.1066 12.1049C27.1066 11.8516 27.1066 11.6116 27.0932 11.3583C28.2132 10.5583 29.1732 9.54493 29.9466 8.38493Z" fill="white"/>
</svg>
