<svg width="25" height="25" viewBox="0 0 25 25" fill="none" xmlns="http://www.w3.org/2000/svg">
<path d="M16.25 13.25L12.1 9.2C11.5833 8.7 11.146 8.146 10.788 7.538C10.43 6.93 10.2507 6.26734 10.25 5.55C10.25 4.63334 10.571 3.85434 11.213 3.213C11.855 2.57167 12.634 2.25067 13.55 2.25C14.0833 2.25 14.5833 2.36267 15.05 2.588C15.5167 2.81334 15.9167 3.11734 16.25 3.5C16.5833 3.11667 16.9833 2.81234 17.45 2.587C17.9167 2.36167 18.4167 2.24934 18.95 2.25C19.8667 2.25 20.646 2.571 21.288 3.213C21.93 3.855 22.2507 4.634 22.25 5.55C22.25 6.26667 22.075 6.92934 21.725 7.538C21.375 8.14667 20.9417 8.70067 20.425 9.2L16.25 13.25ZM16.25 10.45L18.975 7.775C19.2917 7.45834 19.5833 7.12067 19.85 6.762C20.1167 6.40334 20.25 5.99934 20.25 5.55C20.25 5.18334 20.125 4.875 19.875 4.625C19.625 4.375 19.3167 4.25 18.95 4.25C18.7167 4.25 18.4957 4.29567 18.287 4.387C18.0783 4.47834 17.8993 4.616 17.75 4.8L16.25 6.6L14.75 4.8C14.6 4.61667 14.421 4.479 14.213 4.387C14.005 4.295 13.784 4.24934 13.55 4.25C13.1833 4.25 12.875 4.375 12.625 4.625C12.375 4.875 12.25 5.18334 12.25 5.55C12.25 6 12.3833 6.40434 12.65 6.763C12.9167 7.12167 13.2083 7.459 13.525 7.775L16.25 10.45ZM7.25 18.75L14.2 20.65L20.15 18.8C20.0667 18.65 19.9457 18.5207 19.787 18.412C19.6283 18.3033 19.4493 18.2493 19.25 18.25H14.2C13.75 18.25 13.3917 18.2333 13.125 18.2C12.8583 18.1667 12.5833 18.1 12.3 18L9.975 17.225L10.525 15.275L12.55 15.95C12.8333 16.0333 13.1667 16.1 13.55 16.15C13.9333 16.2 14.5 16.2333 15.25 16.25C15.25 16.0667 15.196 15.8917 15.088 15.725C14.98 15.5583 14.8507 15.45 14.7 15.4L8.85 13.25H7.25V18.75ZM1.25 22.25V11.25H8.85C8.96667 11.25 9.08333 11.2627 9.2 11.288C9.31667 11.3133 9.425 11.3423 9.525 11.375L15.4 13.55C15.95 13.75 16.396 14.1 16.738 14.6C17.08 15.1 17.2507 15.65 17.25 16.25H19.25C20.0833 16.25 20.7917 16.525 21.375 17.075C21.9583 17.625 22.25 18.35 22.25 19.25V20.25L14.25 22.75L7.25 20.8V22.25H1.25ZM3.25 20.25H5.25V13.25H3.25V20.25Z" fill="#31B67D"/>
</svg>
