<svg width="41" height="41" viewBox="0 0 41 41" fill="none" xmlns="http://www.w3.org/2000/svg">
<path d="M16.6877 5.6929C14.0352 5.6929 9.96858 7.22373 11.3827 16.7037C11.405 16.8471 11.4314 17.0018 11.4619 17.1679C11.7202 18.5937 12.1186 20.8012 9.58358 22.6212C11.3077 24.0362 13.7636 25.4504 16.7477 26.0629C16.6297 26.7396 16.4817 27.4109 16.3044 28.0746C16.0619 28.9646 15.5536 29.5954 14.6452 29.8646C13.8452 30.1012 13.0069 30.2929 12.1486 30.4896C11.9275 30.5396 11.7052 30.5907 11.4819 30.6429C10.4111 30.8921 9.31941 31.1679 8.35191 31.5579C7.38191 31.9496 6.48024 32.4771 5.82858 33.2637C5.16524 34.0662 4.81024 35.0779 4.83441 36.3429C4.84274 36.7362 5.17941 37.0512 5.59274 37.0512H35.7411C36.1544 37.0512 36.4911 36.7362 36.4994 36.3429C36.5236 35.0779 36.1694 34.0662 35.5052 33.2637C34.8544 32.4771 33.9519 31.9487 32.9827 31.5579C32.0144 31.1671 30.9227 30.8912 29.8511 30.6421L29.1861 30.4896C28.3269 30.2929 27.4886 30.1012 26.6886 29.8646C25.7802 29.5954 25.2719 28.9646 25.0294 28.0746C24.8176 27.2843 24.649 26.4831 24.5244 25.6746C26.8061 24.9879 29.2311 23.7537 31.7502 21.7829L31.7386 21.7712C30.5561 20.6396 28.3394 18.5179 28.1819 13.4812C28.1819 6.54623 23.7602 0.45123 16.6877 5.6929Z" stroke="#31B67D" stroke-width="3.33333" stroke-linejoin="round"/>
</svg>
