<svg width="41" height="40" viewBox="0 0 41 40" fill="none" xmlns="http://www.w3.org/2000/svg">
<path d="M16.3542 5.30838C13.7017 5.30838 9.63508 6.83921 11.0492 16.3192C11.0715 16.4625 11.0979 16.6173 11.1284 16.7834C11.3867 18.2092 11.7851 20.4167 9.25008 22.2367C10.9742 23.6517 13.4301 25.0659 16.4142 25.6784C16.2962 26.3551 16.1482 27.0263 15.9709 27.69C15.7284 28.58 15.2201 29.2109 14.3117 29.48C13.5117 29.7167 12.6734 29.9084 11.8151 30.105C11.594 30.155 11.3717 30.2062 11.1484 30.2584C10.0776 30.5075 8.98591 30.7834 8.01841 31.1734C7.04841 31.565 6.14675 32.0925 5.49508 32.8792C4.83175 33.6817 4.47675 34.6934 4.50091 35.9584C4.50925 36.3517 4.84591 36.6667 5.25925 36.6667H35.4076C35.8209 36.6667 36.1576 36.3517 36.1659 35.9584C36.1901 34.6934 35.8359 33.6817 35.1717 32.8792C34.5209 32.0925 33.6184 31.5642 32.6492 31.1734C31.6809 30.7825 30.5892 30.5067 29.5176 30.2575L28.8526 30.105C27.9934 29.9084 27.1551 29.7167 26.3551 29.48C25.4467 29.2109 24.9384 28.58 24.6959 27.69C24.4841 26.8998 24.3155 26.0986 24.1909 25.29C26.4726 24.6034 28.8976 23.3692 31.4167 21.3984L31.4051 21.3867C30.2226 20.255 28.0059 18.1334 27.8484 13.0967C27.8484 6.16171 23.4267 0.0667089 16.3542 5.30838Z" stroke="white" stroke-width="3.33333" stroke-linejoin="round"/>
</svg>
